<svg width="34" height="34" viewBox="0 0 34 34" fill="none" xmlns="http://www.w3.org/2000/svg">
<path fill-rule="evenodd" clip-rule="evenodd" d="M21.1764 1.771H24.157C25.4299 1.77096 26.4913 1.77093 27.3339 1.8842C28.2233 2.00378 29.0263 2.26682 29.6714 2.91207C30.3167 3.55731 30.5798 4.36028 30.6993 5.24965C30.8127 6.09227 30.8125 7.15366 30.8125 8.42651V30.1043H31.1667C31.7535 30.1043 32.2292 30.58 32.2292 31.1668C32.2292 31.7536 31.7535 32.2293 31.1667 32.2293H2.83337C2.24658 32.2293 1.77087 31.7536 1.77087 31.1668C1.77087 30.58 2.24658 30.1043 2.83337 30.1043H3.18754V12.6765C3.1875 11.4036 3.18746 10.3423 3.30075 9.49965C3.42033 8.61028 3.68336 7.80731 4.32861 7.16207C4.97386 6.51682 5.77682 6.25378 6.66619 6.1342C7.5088 6.02093 8.57019 6.02095 9.84304 6.021H14.5605C14.6334 4.78259 14.8617 3.71228 15.662 2.91207C16.3071 2.26682 17.1101 2.00378 17.9995 1.8842C18.8421 1.77093 19.9035 1.77096 21.1764 1.771ZM15.593 8.146H15.5876H15.5834H9.91671C8.55103 8.146 7.63365 8.14826 6.94934 8.24026C6.29561 8.32815 6.01582 8.48005 5.83121 8.66467C5.64659 8.84929 5.4947 9.12906 5.40681 9.7828C5.31479 10.4671 5.31254 11.3845 5.31254 12.7502V30.1043H11.6875V26.9168C11.6875 26.33 12.1632 25.8543 12.75 25.8543C13.3368 25.8543 13.8125 26.33 13.8125 26.9168V30.1043H20.1875V12.7502C20.1875 11.3845 20.1853 10.4671 20.0933 9.7828C20.0054 9.12906 19.8535 8.84929 19.6689 8.66467C19.4843 8.48005 19.2045 8.32815 18.5507 8.24026C17.868 8.14848 16.9534 8.14601 15.593 8.146ZM22.3125 30.1043V12.6765C22.3125 11.4037 22.3127 10.3423 22.1993 9.49965C22.0798 8.61028 21.8167 7.80731 21.1714 7.16207C20.5263 6.51682 19.7233 6.25378 18.8339 6.1342C18.2313 6.0532 17.5168 6.03013 16.6932 6.02359C16.7642 5.03243 16.9201 4.65906 17.1645 4.41467C17.3491 4.23005 17.6289 4.07815 18.2827 3.99026C18.9669 3.89826 19.8844 3.896 21.25 3.896H24.0834C25.449 3.896 26.3665 3.89826 27.0507 3.99026C27.7045 4.07815 27.9843 4.23005 28.1689 4.41467C28.3535 4.59929 28.5054 4.87906 28.5933 5.5328C28.6853 6.21711 28.6875 7.13448 28.6875 8.50016V30.1043H22.3125ZM7.43754 11.3335C7.43754 10.7467 7.91324 10.271 8.50004 10.271H17C17.5868 10.271 18.0625 10.7467 18.0625 11.3335C18.0625 11.9203 17.5868 12.396 17 12.396H8.50004C7.91324 12.396 7.43754 11.9203 7.43754 11.3335ZM7.43754 15.5835C7.43754 14.9967 7.91324 14.521 8.50004 14.521H17C17.5868 14.521 18.0625 14.9967 18.0625 15.5835C18.0625 16.1703 17.5868 16.646 17 16.646H8.50004C7.91324 16.646 7.43754 16.1703 7.43754 15.5835ZM7.43754 19.8335C7.43754 19.2467 7.91324 18.771 8.50004 18.771H17C17.5868 18.771 18.0625 19.2467 18.0625 19.8335C18.0625 20.4203 17.5868 20.896 17 20.896H8.50004C7.91324 20.896 7.43754 20.4203 7.43754 19.8335Z" fill="#1C274C"/>
</svg>
