<svg width="34" height="34" viewBox="0 0 34 34" fill="none" xmlns="http://www.w3.org/2000/svg">
<path d="M16.9187 1.771H19.125C19.7118 1.771 20.1875 2.2467 20.1875 2.8335C20.1875 3.42029 19.7118 3.896 19.125 3.896H17C13.6309 3.896 11.2109 3.89825 9.36928 4.14585C7.5582 4.38935 6.46634 4.85244 5.65934 5.65946C4.85232 6.46647 4.38923 7.55832 4.14573 9.3694C3.89813 11.211 3.89587 13.631 3.89587 17.0002C3.89587 20.3693 3.89813 22.7892 4.14573 24.6309C4.38923 26.442 4.85232 27.5338 5.65934 28.3409C6.46634 29.1479 7.5582 29.611 9.36928 29.8544C11.2109 30.1021 13.6309 30.1043 17 30.1043C20.3692 30.1043 22.7891 30.1021 24.6308 29.8544C26.4418 29.611 27.5337 29.1479 28.3407 28.3409C29.1478 27.5338 29.6109 26.442 29.8543 24.6309C30.1019 22.7892 30.1042 20.3693 30.1042 17.0002V14.8752C30.1042 14.2884 30.5799 13.8127 31.1667 13.8127C31.7535 13.8127 32.2292 14.2884 32.2292 14.8752V17.0815C32.2292 20.3517 32.2292 22.9145 31.9605 24.9141C31.6852 26.9607 31.111 28.5759 29.8434 29.8435C28.5758 31.1112 26.9606 31.6853 24.914 31.9606C22.9143 32.2293 20.3516 32.2293 17.0814 32.2293H16.9187C13.6485 32.2293 11.0857 32.2293 9.08613 31.9606C7.03941 31.6853 5.42439 31.1112 4.15674 29.8435C2.88909 28.5759 2.31486 26.9607 2.03969 24.9141C1.77085 22.9145 1.77086 20.3517 1.77087 17.0815V16.9188C1.77086 13.6487 1.77085 11.0858 2.03969 9.08625C2.31486 7.03954 2.88909 5.42451 4.15674 4.15686C5.42439 2.88921 7.03941 2.31498 9.08613 2.03981C11.0857 1.77097 13.6485 1.77098 16.9187 1.771Z" fill="#1C274C"/>
<path fill-rule="evenodd" clip-rule="evenodd" d="M21.6041 7.0835C21.6041 4.14948 23.9826 1.771 26.9166 1.771C29.8507 1.771 32.2291 4.14948 32.2291 7.0835C32.2291 10.0175 29.8507 12.396 26.9166 12.396C23.9826 12.396 21.6041 10.0175 21.6041 7.0835ZM26.9166 3.896C25.1563 3.896 23.7291 5.32309 23.7291 7.0835C23.7291 8.8439 25.1563 10.271 26.9166 10.271C28.677 10.271 30.1041 8.8439 30.1041 7.0835C30.1041 5.32309 28.677 3.896 26.9166 3.896Z" fill="#1C274C"/>
<path d="M19.4791 14.1665C19.4791 14.7533 19.9548 15.229 20.5416 15.229H21.5181L18.6671 18.0802C18.5287 18.2185 18.3046 18.2185 18.1662 18.0802L15.9196 15.8336C14.9515 14.8655 13.3818 14.8655 12.4136 15.8336L9.16532 19.0819C8.75039 19.4969 8.75039 20.1695 9.16532 20.5844C9.58025 20.9994 10.253 20.9994 10.6679 20.5844L13.9162 17.3362C14.0545 17.1979 14.2787 17.1979 14.4171 17.3362L16.6636 19.5827C17.6318 20.5509 19.2015 20.5509 20.1696 19.5827L23.0208 16.7317V17.7082C23.0208 18.295 23.4965 18.7707 24.0833 18.7707C24.6701 18.7707 25.1458 18.295 25.1458 17.7082V14.1665C25.1458 13.5797 24.6701 13.104 24.0833 13.104H20.5416C19.9548 13.104 19.4791 13.5797 19.4791 14.1665Z" fill="#1C274C"/>
</svg>
