<svg width="34" height="34" viewBox="0 0 34 34" fill="none" xmlns="http://www.w3.org/2000/svg">
<path d="M15.4793 3.34363C15.9799 3.6497 16.1376 4.30368 15.8316 4.80434C15.6095 5.16765 15.6651 5.6358 15.9662 5.9369L16.1049 6.07556C16.9389 6.90949 17.2463 8.13459 16.905 9.2635C16.7353 9.82519 16.1423 10.1429 15.5806 9.97312C15.0189 9.80332 14.7012 9.21033 14.871 8.64864C14.9856 8.26957 14.8823 7.85818 14.6022 7.57816L14.4637 7.4395C13.4684 6.44426 13.2844 4.89684 14.0185 3.69597C14.3245 3.19531 14.9786 3.03756 15.4793 3.34363Z" fill="#1C274C"/>
<path d="M25.0597 6.68929C25.6351 6.80438 26.0083 7.36414 25.8932 7.93954L25.6892 8.95944C25.4084 10.3631 24.3971 11.5087 23.0391 11.9614C22.4045 12.1729 21.9319 12.7082 21.8009 13.3641L21.5969 14.3841C21.4817 14.9594 20.922 15.3327 20.3466 15.2175C19.7712 15.1025 19.3981 14.5427 19.5131 13.9673L19.7171 12.9474C19.9978 11.5437 21.0091 10.3981 22.3671 9.94543C23.0017 9.73391 23.4743 9.19859 23.6055 8.5427L23.8095 7.52279C23.9245 6.94738 24.4842 6.57422 25.0597 6.68929Z" fill="#1C274C"/>
<path fill-rule="evenodd" clip-rule="evenodd" d="M16.6012 12.485C15.4415 11.3252 14.4858 10.3695 13.6552 9.75366C12.797 9.11741 11.8432 8.66905 10.7449 8.92834C9.64655 9.18762 8.99402 10.0152 8.51099 10.968C8.04345 11.8903 7.61611 13.1725 7.09748 14.7285L4.6466 22.0813C4.01852 23.9653 3.50886 25.4942 3.29796 26.6798C3.08516 27.876 3.10662 29.0898 4.00776 29.991C4.90892 30.8921 6.12279 30.9136 7.31904 30.7009C8.50453 30.4899 10.0334 29.9803 11.9174 29.3522L19.2702 26.9014C20.8261 26.3827 22.1085 25.9553 23.0307 25.4878C23.9836 25.0047 24.8112 24.3522 25.0704 23.2539C25.3297 22.1555 24.8813 21.2018 24.2451 20.3436C23.6292 19.513 22.6736 18.5573 21.5137 17.3976L16.6012 12.485ZM12.3168 11.4076C12.3405 11.4246 12.3648 11.4423 12.3895 11.4607C13.0782 11.9713 13.923 12.812 15.1614 14.0505L16.2378 15.1269C16.2164 15.1825 16.1927 15.2454 16.1674 15.3151C16.0582 15.6143 15.9146 16.0406 15.7717 16.5618C15.4871 17.599 15.1968 19.0401 15.1968 20.6201C15.1968 22.1248 15.4884 23.5664 15.7703 24.6144C15.8877 25.0509 16.0053 25.4258 16.1033 25.717L12.3709 26.9611C12.3555 26.8913 12.3385 26.8134 12.32 26.7281C12.2337 26.329 12.1169 25.7706 11.995 25.1342C11.7488 23.8493 11.491 22.2917 11.412 21.0876C11.2816 19.0989 11.5364 16.5037 11.8376 14.3569C11.9868 13.2939 12.1445 12.3596 12.2649 11.6915C12.2831 11.5906 12.3005 11.4958 12.3168 11.4076ZM9.85192 13.2508C9.62762 13.8605 9.38136 14.5968 9.08534 15.4849L6.69188 22.6652C6.02751 24.6583 5.57039 26.0385 5.3901 27.0519C5.20846 28.0731 5.37752 28.3556 5.51037 28.4884C5.64322 28.6212 5.92576 28.7903 6.94685 28.6087C7.78325 28.4598 8.86951 28.1225 10.344 27.6356C10.3187 27.523 10.2842 27.3676 10.2431 27.1773C10.1541 26.7658 10.0337 26.1905 9.90794 25.534C9.65878 24.2332 9.37959 22.5686 9.29159 21.2266C9.14617 19.009 9.42845 16.2337 9.73322 14.0617C9.77249 13.7819 9.81231 13.5108 9.85192 13.2508ZM18.1193 25.045L18.5139 24.9135C20.1754 24.3596 21.3052 23.98 22.0699 23.5924C22.8206 23.2119 22.9585 22.9511 23.0022 22.7657C23.046 22.5801 23.0393 22.2853 22.5381 21.6093C22.0276 20.9206 21.1868 20.0759 19.9483 18.8374L17.9131 16.8022C17.8828 16.9039 17.8518 17.0115 17.8209 17.1241C17.5685 18.0442 17.3218 19.2883 17.3218 20.6201C17.3218 21.4965 17.4424 22.3697 17.6023 23.1401C17.6706 23.4688 17.746 23.7789 17.8223 24.0624C17.9277 24.4543 18.033 24.7891 18.1193 25.045Z" fill="#1C274C"/>
<path d="M28.8017 18.0342C29.22 17.6632 29.816 17.569 30.3284 17.7931L30.7414 17.9736C31.279 18.2088 31.9055 17.9634 32.1405 17.4258C32.3756 16.8881 32.1303 16.2617 31.5926 16.0267L31.1797 15.846C29.9084 15.2901 28.4299 15.5238 27.3918 16.4443C26.9297 16.854 26.2572 16.9221 25.7224 16.6133L25.4208 16.4392C24.9126 16.1458 24.2628 16.3199 23.9694 16.8282C23.676 17.3364 23.8501 17.9862 24.3583 18.2796L24.6599 18.4537C25.9869 19.2198 27.6552 19.0508 28.8017 18.0342Z" fill="#1C274C"/>
<path d="M19.8034 5.74894C19.6388 5.80114 19.4963 5.94355 19.2115 6.22838C18.9266 6.51322 18.7843 6.65563 18.7321 6.82029C18.6879 6.95958 18.6879 7.10911 18.7321 7.24839C18.7843 7.41307 18.9266 7.55547 19.2115 7.84031C19.4963 8.12514 19.6388 8.26756 19.8034 8.31975C19.9427 8.36391 20.0923 8.36391 20.2315 8.31975C20.3961 8.26756 20.5387 8.12514 20.8234 7.84031C21.1083 7.55547 21.2507 7.41307 21.3029 7.24839C21.347 7.10911 21.347 6.95958 21.3029 6.82029C21.2507 6.65563 21.1083 6.51322 20.8234 6.22838C20.5387 5.94355 20.3961 5.80114 20.2315 5.74894C20.0923 5.70478 19.9427 5.70478 19.8034 5.74894Z" fill="#1C274C"/>
<path d="M27.58 10.5803C27.9277 10.2327 28.1015 10.0589 28.2976 9.98331C28.5271 9.89489 28.7812 9.89489 29.0107 9.98331C29.2068 10.0589 29.3806 10.2327 29.7283 10.5803C30.0759 10.9279 30.2497 11.1018 30.3252 11.2979C30.4136 11.5273 30.4136 11.7815 30.3252 12.0109C30.2497 12.207 30.0759 12.3808 29.7283 12.7285C29.3806 13.0761 29.2068 13.2499 29.0107 13.3255C28.7812 13.4139 28.5271 13.4139 28.2976 13.3255C28.1015 13.2499 27.9277 13.0761 27.58 12.7285C27.2325 12.3808 27.0587 12.207 26.983 12.0109C26.8946 11.7815 26.8946 11.5273 26.983 11.2979C27.0587 11.1018 27.2325 10.9279 27.58 10.5803Z" fill="#1C274C"/>
<path d="M10.8886 5.58291C10.5919 5.28616 10.1107 5.28616 9.81399 5.58291C9.51724 5.87966 9.51724 6.36079 9.81399 6.65753C10.1107 6.95428 10.5919 6.95428 10.8886 6.65753C11.1854 6.36079 11.1854 5.87966 10.8886 5.58291Z" fill="#1C274C"/>
<path d="M26.9992 21.6943C27.296 21.3975 27.7771 21.3975 28.0739 21.6943C28.3707 21.9909 28.3707 22.472 28.0739 22.7688C27.7771 23.0656 27.296 23.0656 26.9992 22.7688C26.7026 22.472 26.7026 21.9909 26.9992 21.6943Z" fill="#1C274C"/>
<path d="M25.8665 13.8007C25.5697 13.5039 25.0886 13.5039 24.7918 13.8007C24.4952 14.0974 24.4952 14.5785 24.7918 14.8753C25.0886 15.1721 25.5697 15.1721 25.8665 14.8753C26.1632 14.5785 26.1632 14.0974 25.8665 13.8007Z" fill="#1C274C"/>
</svg>
