<svg width="32" height="32" viewBox="0 0 32 32" fill="none" xmlns="http://www.w3.org/2000/svg">
<g id="call-chat-svgrepo-com">
<path id="Vector" fill-rule="evenodd" clip-rule="evenodd" d="M22.6667 3.66675C19.5371 3.66675 17.0001 6.2038 17.0001 9.33341C17.0001 10.2417 17.2131 11.0974 17.5909 11.8559C17.8029 12.2815 17.8907 12.8031 17.7509 13.3256L17.4134 14.5867L18.6746 14.2493C19.1971 14.1095 19.7186 14.1973 20.1443 14.4093C20.9029 14.7871 21.7585 15.0001 22.6667 15.0001C25.7963 15.0001 28.3334 12.463 28.3334 9.33341C28.3334 6.2038 25.7963 3.66675 22.6667 3.66675ZM15.0001 9.33341C15.0001 5.09923 18.4326 1.66675 22.6667 1.66675C26.901 1.66675 30.3334 5.09923 30.3334 9.33341C30.3334 13.5675 26.901 17.0001 22.6667 17.0001C21.4422 17.0001 20.2819 16.7122 19.2526 16.1995C19.2295 16.1881 19.211 16.1835 19.1998 16.1822C19.1946 16.1815 19.1915 16.1817 19.1902 16.1817L17.7075 16.5785C16.3199 16.9497 15.0505 15.6802 15.4218 14.2927L15.8185 12.81C15.8186 12.8087 15.8186 12.8056 15.8179 12.8003C15.8166 12.7891 15.8121 12.7706 15.8006 12.7476C15.2879 11.7183 15.0001 10.558 15.0001 9.33341ZM4.95701 5.45625C6.59191 3.735 9.29621 4.05748 10.6477 5.96892L12.329 8.34691C13.4099 9.87579 13.3186 12.0013 12.0285 13.3595L11.7021 13.7033C11.7012 13.7057 11.7002 13.7082 11.6992 13.711C11.682 13.7595 11.6383 13.9139 11.6813 14.2069C11.7703 14.8142 12.2391 16.0485 14.1427 18.0526C16.0522 20.063 17.2105 20.5367 17.7471 20.6239C17.9787 20.6615 18.0998 20.6289 18.1385 20.6153L18.6833 20.0417C19.8483 18.8151 21.6647 18.5734 23.1294 19.4165L25.6767 20.8827C27.8539 22.1359 28.3607 25.2014 26.6207 27.0333L24.7267 29.0274C24.1355 29.6498 23.3294 30.181 22.3334 30.2794C19.9015 30.5194 14.2681 30.2067 8.36222 23.989C2.85133 18.1871 1.80442 13.1406 1.67209 10.6749C1.6067 9.45669 2.14973 8.41177 2.86419 7.65957L4.95701 5.45625ZM9.01461 7.12355C8.33147 6.15735 7.10424 6.09969 6.40711 6.83363L4.31432 9.03695C3.87246 9.50213 3.64063 10.0353 3.66921 10.5677C3.77726 12.5808 4.64417 17.1705 9.81233 22.6117C15.2313 28.3167 20.2235 28.4779 22.1369 28.289C22.5153 28.2517 22.9045 28.0418 23.2766 27.6501L25.1706 25.6559C25.9877 24.7958 25.7735 23.2461 24.679 22.6161L22.1317 21.1498C21.4481 20.7563 20.6473 20.8779 20.1334 21.419L19.5261 22.0583L18.8011 21.3697C19.5261 22.0583 19.5253 22.0593 19.5243 22.0603L19.5223 22.0623L19.5185 22.0663L19.5099 22.075L19.4909 22.0938C19.4771 22.1071 19.4613 22.1218 19.4434 22.1375C19.4075 22.1689 19.3631 22.2047 19.3099 22.2426C19.203 22.3183 19.0607 22.4017 18.8809 22.4726C18.5129 22.6177 18.0269 22.6955 17.4266 22.5981C16.2565 22.4081 14.723 21.5677 12.6926 19.4299C10.6561 17.2859 9.87669 15.6863 9.70241 14.4969C9.6137 13.8914 9.68469 13.4066 9.81495 13.0405C9.87902 12.8605 9.95466 12.7169 10.0244 12.6079C10.0592 12.5536 10.0924 12.5081 10.1217 12.471C10.1363 12.4525 10.15 12.4361 10.1625 12.4217L10.1803 12.4018L10.1884 12.3929L10.1923 12.3888L10.1942 12.3868C10.1951 12.3858 10.196 12.3848 10.9211 13.0735L10.196 12.3848L10.5784 11.9822C11.1725 11.3568 11.2588 10.2976 10.6959 9.50152L9.01461 7.12355Z" fill="#11133C"/>
</g>
</svg>
