<svg width="546" height="553" viewBox="0 0 546 553" fill="none" xmlns="http://www.w3.org/2000/svg">
<rect x="91" width="455" height="553" rx="16" fill="url(#paint0_linear_421_1395)"/>
<mask id="mask0_421_1395" style="mask-type:alpha" maskUnits="userSpaceOnUse" x="91" y="0" width="455" height="553">
<rect x="91" width="455" height="553" rx="16" fill="url(#paint1_linear_421_1395)"/>
</mask>
<g mask="url(#mask0_421_1395)">
<path d="M110.699 403.819L9 435.614L19.7672 398.662C32.8758 353.645 67.3913 318.219 111.766 304.194C128.904 258.887 169.027 222.948 227.434 203.54L662.789 44.8882C688.783 128.946 642.289 218.353 558.939 244.557L271.522 334.96C245.034 343.282 237.675 363.397 237.675 374.852C237.675 384.17 234.044 401.168 265.326 419.419L379.624 481.225L284.854 601.527C251.803 634.864 206.983 653.581 160.25 653.581H81.1052L228.437 504.971C168.692 488.728 127.423 450.202 110.699 403.803V403.819Z" fill="white" fill-opacity="0.27"/>
<path d="M481.594 394.099C557.809 398.887 619.991 333.385 611.931 256.783L280.187 357.211C269.563 360.216 271.092 375.88 282.098 376.732L481.61 394.083L481.594 394.099Z" fill="white" fill-opacity="0.27"/>
<path d="M513.274 420.865L292.101 393.634C289.935 393.393 287.912 394.71 287.243 396.799C286.574 398.887 287.466 401.152 289.361 402.229L396.492 467.136C441.169 492.391 497.586 470.027 513.274 420.849V420.865Z" fill="white" fill-opacity="0.27"/>
</g>
<rect x="20.5" y="241.5" width="424" height="311" rx="7.5" fill="white" stroke="#E4E4E4"/>
<circle cx="80" cy="293" r="28" fill="#E6F1FB"/>
<path d="M81 297H79C78.45 297 78 296.55 78 296H71.01V300C71.01 301.1 71.91 302 73.01 302H87C88.1 302 89 301.1 89 300V296H82C82 296.55 81.55 297 81 297ZM88 288H84C84 285.79 82.21 284 80 284C77.79 284 76 285.79 76 288H72C70.9 288 70 288.9 70 290V293C70 294.11 70.89 295 72 295H78V294C78 293.45 78.45 293 79 293H81C81.55 293 82 293.45 82 294V295H88C89.1 295 90 294.1 90 293V290C90 288.9 89.1 288 88 288ZM78 288C78 286.9 78.9 286 80 286C81.1 286 82 286.9 82 288H77.99H78Z" fill="#11133C"/>
<path d="M136.952 284.872H132.504L131.768 287H129.416L133.432 275.816H136.04L140.056 287H137.688L136.952 284.872ZM136.344 283.08L134.728 278.408L133.112 283.08H136.344ZM152.565 278.008C153.653 278.008 154.528 278.344 155.189 279.016C155.861 279.677 156.197 280.605 156.197 281.8V287H153.957V282.104C153.957 281.411 153.781 280.883 153.429 280.52C153.077 280.147 152.597 279.96 151.989 279.96C151.381 279.96 150.896 280.147 150.533 280.52C150.181 280.883 150.005 281.411 150.005 282.104V287H147.765V282.104C147.765 281.411 147.589 280.883 147.237 280.52C146.885 280.147 146.405 279.96 145.797 279.96C145.178 279.96 144.688 280.147 144.325 280.52C143.973 280.883 143.797 281.411 143.797 282.104V287H141.557V278.136H143.797V279.208C144.085 278.835 144.453 278.541 144.901 278.328C145.36 278.115 145.861 278.008 146.405 278.008C147.098 278.008 147.717 278.157 148.261 278.456C148.805 278.744 149.226 279.16 149.525 279.704C149.813 279.192 150.229 278.781 150.773 278.472C151.328 278.163 151.925 278.008 152.565 278.008ZM157.747 282.536C157.747 281.64 157.923 280.845 158.275 280.152C158.637 279.459 159.123 278.925 159.731 278.552C160.349 278.179 161.037 277.992 161.795 277.992C162.456 277.992 163.032 278.125 163.523 278.392C164.024 278.659 164.424 278.995 164.723 279.4V278.136H166.979V287H164.723V285.704C164.435 286.12 164.035 286.467 163.523 286.744C163.021 287.011 162.44 287.144 161.779 287.144C161.032 287.144 160.349 286.952 159.731 286.568C159.123 286.184 158.637 285.645 158.275 284.952C157.923 284.248 157.747 283.443 157.747 282.536ZM164.723 282.568C164.723 282.024 164.616 281.56 164.403 281.176C164.189 280.781 163.901 280.483 163.539 280.28C163.176 280.067 162.787 279.96 162.371 279.96C161.955 279.96 161.571 280.061 161.219 280.264C160.867 280.467 160.579 280.765 160.355 281.16C160.141 281.544 160.035 282.003 160.035 282.536C160.035 283.069 160.141 283.539 160.355 283.944C160.579 284.339 160.867 284.643 161.219 284.856C161.581 285.069 161.965 285.176 162.371 285.176C162.787 285.176 163.176 285.075 163.539 284.872C163.901 284.659 164.189 284.36 164.403 283.976C164.616 283.581 164.723 283.112 164.723 282.568ZM171.215 285.16H175.167V287H168.671V285.192L172.543 279.976H168.687V278.136H175.119V279.944L171.215 285.16ZM180.837 287.144C179.984 287.144 179.216 286.957 178.533 286.584C177.85 286.2 177.312 285.661 176.917 284.968C176.533 284.275 176.341 283.475 176.341 282.568C176.341 281.661 176.538 280.861 176.933 280.168C177.338 279.475 177.888 278.941 178.581 278.568C179.274 278.184 180.048 277.992 180.901 277.992C181.754 277.992 182.528 278.184 183.221 278.568C183.914 278.941 184.458 279.475 184.853 280.168C185.258 280.861 185.461 281.661 185.461 282.568C185.461 283.475 185.253 284.275 184.837 284.968C184.432 285.661 183.877 286.2 183.173 286.584C182.48 286.957 181.701 287.144 180.837 287.144ZM180.837 285.192C181.242 285.192 181.621 285.096 181.973 284.904C182.336 284.701 182.624 284.403 182.837 284.008C183.05 283.613 183.157 283.133 183.157 282.568C183.157 281.725 182.933 281.08 182.485 280.632C182.048 280.173 181.509 279.944 180.869 279.944C180.229 279.944 179.69 280.173 179.253 280.632C178.826 281.08 178.613 281.725 178.613 282.568C178.613 283.411 178.821 284.061 179.237 284.52C179.664 284.968 180.197 285.192 180.837 285.192ZM192.016 278.008C193.072 278.008 193.925 278.344 194.576 279.016C195.227 279.677 195.552 280.605 195.552 281.8V287H193.312V282.104C193.312 281.4 193.136 280.861 192.784 280.488C192.432 280.104 191.952 279.912 191.344 279.912C190.725 279.912 190.235 280.104 189.872 280.488C189.52 280.861 189.344 281.4 189.344 282.104V287H187.104V278.136H189.344V279.24C189.643 278.856 190.021 278.557 190.48 278.344C190.949 278.12 191.461 278.008 192.016 278.008ZM204.887 287.144C204.161 287.144 203.511 287.016 202.935 286.76C202.359 286.493 201.9 286.136 201.559 285.688C201.228 285.24 201.047 284.744 201.015 284.2H203.271C203.313 284.541 203.479 284.824 203.767 285.048C204.065 285.272 204.433 285.384 204.871 285.384C205.297 285.384 205.628 285.299 205.863 285.128C206.108 284.957 206.231 284.739 206.231 284.472C206.231 284.184 206.081 283.971 205.783 283.832C205.495 283.683 205.031 283.523 204.391 283.352C203.729 283.192 203.185 283.027 202.759 282.856C202.343 282.685 201.98 282.424 201.671 282.072C201.372 281.72 201.223 281.245 201.223 280.648C201.223 280.157 201.361 279.709 201.639 279.304C201.927 278.899 202.332 278.579 202.855 278.344C203.388 278.109 204.012 277.992 204.727 277.992C205.783 277.992 206.625 278.259 207.255 278.792C207.884 279.315 208.231 280.024 208.295 280.92H206.151C206.119 280.568 205.969 280.291 205.703 280.088C205.447 279.875 205.1 279.768 204.663 279.768C204.257 279.768 203.943 279.843 203.719 279.992C203.505 280.141 203.399 280.349 203.399 280.616C203.399 280.915 203.548 281.144 203.847 281.304C204.145 281.453 204.609 281.608 205.239 281.768C205.879 281.928 206.407 282.093 206.823 282.264C207.239 282.435 207.596 282.701 207.895 283.064C208.204 283.416 208.364 283.885 208.375 284.472C208.375 284.984 208.231 285.443 207.943 285.848C207.665 286.253 207.26 286.573 206.727 286.808C206.204 287.032 205.591 287.144 204.887 287.144ZM218.453 282.376C218.453 282.696 218.432 282.984 218.389 283.24H211.909C211.963 283.88 212.187 284.381 212.581 284.744C212.976 285.107 213.461 285.288 214.037 285.288C214.869 285.288 215.461 284.931 215.813 284.216H218.229C217.973 285.069 217.483 285.773 216.757 286.328C216.032 286.872 215.141 287.144 214.085 287.144C213.232 287.144 212.464 286.957 211.781 286.584C211.109 286.2 210.581 285.661 210.197 284.968C209.824 284.275 209.637 283.475 209.637 282.568C209.637 281.651 209.824 280.845 210.197 280.152C210.571 279.459 211.093 278.925 211.765 278.552C212.437 278.179 213.211 277.992 214.085 277.992C214.928 277.992 215.68 278.173 216.341 278.536C217.013 278.899 217.531 279.416 217.893 280.088C218.267 280.749 218.453 281.512 218.453 282.376ZM216.133 281.736C216.123 281.16 215.915 280.701 215.509 280.36C215.104 280.008 214.608 279.832 214.021 279.832C213.467 279.832 212.997 280.003 212.613 280.344C212.24 280.675 212.011 281.139 211.925 281.736H216.133ZM222.328 275.16V287H220.088V275.16H222.328ZM226.782 275.16V287H224.542V275.16H226.782ZM237.235 282.376C237.235 282.696 237.213 282.984 237.171 283.24H230.691C230.744 283.88 230.968 284.381 231.363 284.744C231.757 285.107 232.243 285.288 232.819 285.288C233.651 285.288 234.243 284.931 234.595 284.216H237.011C236.755 285.069 236.264 285.773 235.539 286.328C234.813 286.872 233.923 287.144 232.867 287.144C232.013 287.144 231.245 286.957 230.563 286.584C229.891 286.2 229.363 285.661 228.979 284.968C228.605 284.275 228.419 283.475 228.419 282.568C228.419 281.651 228.605 280.845 228.979 280.152C229.352 279.459 229.875 278.925 230.547 278.552C231.219 278.179 231.992 277.992 232.867 277.992C233.709 277.992 234.461 278.173 235.123 278.536C235.795 278.899 236.312 279.416 236.675 280.088C237.048 280.749 237.235 281.512 237.235 282.376ZM234.915 281.736C234.904 281.16 234.696 280.701 234.291 280.36C233.885 280.008 233.389 279.832 232.803 279.832C232.248 279.832 231.779 280.003 231.395 280.344C231.021 280.675 230.792 281.139 230.707 281.736H234.915ZM241.11 279.512C241.398 279.043 241.771 278.675 242.23 278.408C242.699 278.141 243.232 278.008 243.83 278.008V280.36H243.238C242.534 280.36 242 280.525 241.638 280.856C241.286 281.187 241.11 281.763 241.11 282.584V287H238.87V278.136H241.11V279.512ZM249.599 284.472C250.623 283.619 251.439 282.909 252.047 282.344C252.655 281.768 253.162 281.171 253.567 280.552C253.972 279.933 254.175 279.325 254.175 278.728C254.175 278.184 254.047 277.757 253.791 277.448C253.535 277.139 253.14 276.984 252.607 276.984C252.074 276.984 251.663 277.165 251.375 277.528C251.087 277.88 250.938 278.365 250.927 278.984H248.751C248.794 277.704 249.172 276.733 249.887 276.072C250.612 275.411 251.53 275.08 252.639 275.08C253.855 275.08 254.788 275.405 255.439 276.056C256.09 276.696 256.415 277.544 256.415 278.6C256.415 279.432 256.191 280.227 255.743 280.984C255.295 281.741 254.783 282.403 254.207 282.968C253.631 283.523 252.879 284.195 251.951 284.984H256.671V286.84H248.767V285.176L249.599 284.472Z" fill="#11133C"/>
<path d="M132.252 309.108C131.748 309.108 131.296 309.024 130.896 308.856C130.496 308.68 130.18 308.44 129.948 308.136C129.716 307.824 129.588 307.468 129.564 307.068H130.692C130.724 307.396 130.876 307.664 131.148 307.872C131.428 308.08 131.792 308.184 132.24 308.184C132.656 308.184 132.984 308.092 133.224 307.908C133.464 307.724 133.584 307.492 133.584 307.212C133.584 306.924 133.456 306.712 133.2 306.576C132.944 306.432 132.548 306.292 132.012 306.156C131.524 306.028 131.124 305.9 130.812 305.772C130.508 305.636 130.244 305.44 130.02 305.184C129.804 304.92 129.696 304.576 129.696 304.152C129.696 303.816 129.796 303.508 129.996 303.228C130.196 302.948 130.48 302.728 130.848 302.568C131.216 302.4 131.636 302.316 132.108 302.316C132.836 302.316 133.424 302.5 133.872 302.868C134.32 303.236 134.56 303.74 134.592 304.38H133.5C133.476 304.036 133.336 303.76 133.08 303.552C132.832 303.344 132.496 303.24 132.072 303.24C131.68 303.24 131.368 303.324 131.136 303.492C130.904 303.66 130.788 303.88 130.788 304.152C130.788 304.368 130.856 304.548 130.992 304.692C131.136 304.828 131.312 304.94 131.52 305.028C131.736 305.108 132.032 305.2 132.408 305.304C132.88 305.432 133.264 305.56 133.56 305.688C133.856 305.808 134.108 305.992 134.316 306.24C134.532 306.488 134.644 306.812 134.652 307.212C134.652 307.572 134.552 307.896 134.352 308.184C134.152 308.472 133.868 308.7 133.5 308.868C133.14 309.028 132.724 309.108 132.252 309.108ZM142.194 305.46C142.194 305.668 142.182 305.888 142.158 306.12H136.902C136.942 306.768 137.162 307.276 137.562 307.644C137.97 308.004 138.462 308.184 139.038 308.184C139.51 308.184 139.902 308.076 140.214 307.86C140.534 307.636 140.758 307.34 140.886 306.972H142.062C141.886 307.604 141.534 308.12 141.006 308.52C140.478 308.912 139.822 309.108 139.038 309.108C138.414 309.108 137.854 308.968 137.358 308.688C136.87 308.408 136.486 308.012 136.206 307.5C135.926 306.98 135.786 306.38 135.786 305.7C135.786 305.02 135.922 304.424 136.194 303.912C136.466 303.4 136.846 303.008 137.334 302.736C137.83 302.456 138.398 302.316 139.038 302.316C139.662 302.316 140.214 302.452 140.694 302.724C141.174 302.996 141.542 303.372 141.798 303.852C142.062 304.324 142.194 304.86 142.194 305.46ZM141.066 305.232C141.066 304.816 140.974 304.46 140.79 304.164C140.606 303.86 140.354 303.632 140.034 303.48C139.722 303.32 139.374 303.24 138.99 303.24C138.438 303.24 137.966 303.416 137.574 303.768C137.19 304.12 136.97 304.608 136.914 305.232H141.066ZM144.727 300.12V309H143.635V300.12H144.727ZM147.68 300.12V309H146.588V300.12H147.68ZM155.541 305.46C155.541 305.668 155.529 305.888 155.505 306.12H150.249C150.289 306.768 150.509 307.276 150.909 307.644C151.317 308.004 151.809 308.184 152.385 308.184C152.857 308.184 153.249 308.076 153.561 307.86C153.881 307.636 154.105 307.34 154.233 306.972H155.409C155.233 307.604 154.881 308.12 154.353 308.52C153.825 308.912 153.169 309.108 152.385 309.108C151.761 309.108 151.201 308.968 150.705 308.688C150.217 308.408 149.833 308.012 149.553 307.5C149.273 306.98 149.133 306.38 149.133 305.7C149.133 305.02 149.269 304.424 149.541 303.912C149.813 303.4 150.193 303.008 150.681 302.736C151.177 302.456 151.745 302.316 152.385 302.316C153.009 302.316 153.561 302.452 154.041 302.724C154.521 302.996 154.889 303.372 155.145 303.852C155.409 304.324 155.541 304.86 155.541 305.46ZM154.413 305.232C154.413 304.816 154.321 304.46 154.137 304.164C153.953 303.86 153.701 303.632 153.381 303.48C153.069 303.32 152.721 303.24 152.337 303.24C151.785 303.24 151.313 303.416 150.921 303.768C150.537 304.12 150.317 304.608 150.261 305.232H154.413ZM158.075 303.492C158.267 303.116 158.539 302.824 158.891 302.616C159.251 302.408 159.687 302.304 160.199 302.304V303.432H159.911C158.687 303.432 158.075 304.096 158.075 305.424V309H156.983V302.424H158.075V303.492ZM162.791 303.324V307.2C162.791 307.52 162.859 307.748 162.995 307.884C163.131 308.012 163.367 308.076 163.703 308.076H164.507V309H163.523C162.915 309 162.459 308.86 162.155 308.58C161.851 308.3 161.699 307.84 161.699 307.2V303.324H160.847V302.424H161.699V300.768H162.791V302.424H164.507V303.324H162.791ZM174.59 302.424L172.538 309H171.41L169.826 303.78L168.242 309H167.114L165.05 302.424H166.166L167.678 307.944L169.31 302.424H170.426L172.022 307.956L173.51 302.424H174.59ZM178.542 309.108C177.926 309.108 177.366 308.968 176.862 308.688C176.366 308.408 175.974 308.012 175.686 307.5C175.406 306.98 175.266 306.38 175.266 305.7C175.266 305.028 175.41 304.436 175.698 303.924C175.994 303.404 176.394 303.008 176.898 302.736C177.402 302.456 177.966 302.316 178.59 302.316C179.214 302.316 179.778 302.456 180.282 302.736C180.786 303.008 181.182 303.4 181.47 303.912C181.766 304.424 181.914 305.02 181.914 305.7C181.914 306.38 181.762 306.98 181.458 307.5C181.162 308.012 180.758 308.408 180.246 308.688C179.734 308.968 179.166 309.108 178.542 309.108ZM178.542 308.148C178.934 308.148 179.302 308.056 179.646 307.872C179.99 307.688 180.266 307.412 180.474 307.044C180.69 306.676 180.798 306.228 180.798 305.7C180.798 305.172 180.694 304.724 180.486 304.356C180.278 303.988 180.006 303.716 179.67 303.54C179.334 303.356 178.97 303.264 178.578 303.264C178.178 303.264 177.81 303.356 177.474 303.54C177.146 303.716 176.882 303.988 176.682 304.356C176.482 304.724 176.382 305.172 176.382 305.7C176.382 306.236 176.478 306.688 176.67 307.056C176.87 307.424 177.134 307.7 177.462 307.884C177.79 308.06 178.15 308.148 178.542 308.148ZM183.698 309.072C183.49 309.072 183.314 309 183.17 308.856C183.026 308.712 182.954 308.536 182.954 308.328C182.954 308.12 183.026 307.944 183.17 307.8C183.314 307.656 183.49 307.584 183.698 307.584C183.898 307.584 184.066 307.656 184.202 307.8C184.346 307.944 184.418 308.12 184.418 308.328C184.418 308.536 184.346 308.712 184.202 308.856C184.066 309 183.898 309.072 183.698 309.072ZM185.461 305.7C185.461 305.02 185.597 304.428 185.869 303.924C186.141 303.412 186.517 303.016 186.997 302.736C187.485 302.456 188.041 302.316 188.665 302.316C189.473 302.316 190.137 302.512 190.657 302.904C191.185 303.296 191.533 303.84 191.701 304.536H190.525C190.413 304.136 190.193 303.82 189.865 303.588C189.545 303.356 189.145 303.24 188.665 303.24C188.041 303.24 187.537 303.456 187.153 303.888C186.769 304.312 186.577 304.916 186.577 305.7C186.577 306.492 186.769 307.104 187.153 307.536C187.537 307.968 188.041 308.184 188.665 308.184C189.145 308.184 189.545 308.072 189.865 307.848C190.185 307.624 190.405 307.304 190.525 306.888H191.701C191.525 307.56 191.173 308.1 190.645 308.508C190.117 308.908 189.457 309.108 188.665 309.108C188.041 309.108 187.485 308.968 186.997 308.688C186.517 308.408 186.141 308.012 185.869 307.5C185.597 306.988 185.461 306.388 185.461 305.7ZM196.026 309.108C195.41 309.108 194.85 308.968 194.346 308.688C193.85 308.408 193.458 308.012 193.17 307.5C192.89 306.98 192.75 306.38 192.75 305.7C192.75 305.028 192.894 304.436 193.182 303.924C193.478 303.404 193.878 303.008 194.382 302.736C194.886 302.456 195.45 302.316 196.074 302.316C196.698 302.316 197.262 302.456 197.766 302.736C198.27 303.008 198.666 303.4 198.954 303.912C199.25 304.424 199.398 305.02 199.398 305.7C199.398 306.38 199.246 306.98 198.942 307.5C198.646 308.012 198.242 308.408 197.73 308.688C197.218 308.968 196.65 309.108 196.026 309.108ZM196.026 308.148C196.418 308.148 196.786 308.056 197.13 307.872C197.474 307.688 197.75 307.412 197.958 307.044C198.174 306.676 198.282 306.228 198.282 305.7C198.282 305.172 198.178 304.724 197.97 304.356C197.762 303.988 197.49 303.716 197.154 303.54C196.818 303.356 196.454 303.264 196.062 303.264C195.662 303.264 195.294 303.356 194.958 303.54C194.63 303.716 194.366 303.988 194.166 304.356C193.966 304.724 193.866 305.172 193.866 305.7C193.866 306.236 193.962 306.688 194.154 307.056C194.354 307.424 194.618 307.7 194.946 307.884C195.274 308.06 195.634 308.148 196.026 308.148ZM208.742 302.304C209.254 302.304 209.71 302.412 210.11 302.628C210.51 302.836 210.826 303.152 211.058 303.576C211.29 304 211.406 304.516 211.406 305.124V309H210.326V305.28C210.326 304.624 210.162 304.124 209.834 303.78C209.514 303.428 209.078 303.252 208.526 303.252C207.958 303.252 207.506 303.436 207.17 303.804C206.834 304.164 206.666 304.688 206.666 305.376V309H205.586V305.28C205.586 304.624 205.422 304.124 205.094 303.78C204.774 303.428 204.338 303.252 203.786 303.252C203.218 303.252 202.766 303.436 202.43 303.804C202.094 304.164 201.926 304.688 201.926 305.376V309H200.834V302.424H201.926V303.372C202.142 303.028 202.43 302.764 202.79 302.58C203.158 302.396 203.562 302.304 204.002 302.304C204.554 302.304 205.042 302.428 205.466 302.676C205.89 302.924 206.206 303.288 206.414 303.768C206.598 303.304 206.902 302.944 207.326 302.688C207.75 302.432 208.222 302.304 208.742 302.304Z" fill="#696B78"/>
<circle cx="80" cy="397" r="28" fill="#E6F1FB"/>
<path d="M89 392H83C82.7348 392 82.4804 392.105 82.2929 392.293C82.1054 392.48 82 392.735 82 393V396H80V389C80 388.735 79.8946 388.48 79.7071 388.293C79.5196 388.105 79.2652 388 79 388H71C70.7348 388 70.4804 388.105 70.2929 388.293C70.1054 388.48 70 388.735 70 389V405C70 405.265 70.1054 405.52 70.2929 405.707C70.4804 405.895 70.7348 406 71 406H89C89.2652 406 89.5196 405.895 89.7071 405.707C89.8946 405.52 90 405.265 90 405V393C90 392.735 89.8946 392.48 89.7071 392.293C89.5196 392.105 89.2652 392 89 392ZM76 391H78V393H76V391ZM74 401H72V399H74V401ZM74 397H72V395H74V397ZM74 393H72V391H74V393ZM78 401H76V399H78V401ZM78 397H76V395H78V397ZM87 401H85V399H87V401ZM87 397H85V395H87V397Z" fill="#11133C"/>
<path d="M136.952 388.872H132.504L131.768 391H129.416L133.432 379.816H136.04L140.056 391H137.688L136.952 388.872ZM136.344 387.08L134.728 382.408L133.112 387.08H136.344ZM152.565 382.008C153.653 382.008 154.528 382.344 155.189 383.016C155.861 383.677 156.197 384.605 156.197 385.8V391H153.957V386.104C153.957 385.411 153.781 384.883 153.429 384.52C153.077 384.147 152.597 383.96 151.989 383.96C151.381 383.96 150.896 384.147 150.533 384.52C150.181 384.883 150.005 385.411 150.005 386.104V391H147.765V386.104C147.765 385.411 147.589 384.883 147.237 384.52C146.885 384.147 146.405 383.96 145.797 383.96C145.178 383.96 144.688 384.147 144.325 384.52C143.973 384.883 143.797 385.411 143.797 386.104V391H141.557V382.136H143.797V383.208C144.085 382.835 144.453 382.541 144.901 382.328C145.36 382.115 145.861 382.008 146.405 382.008C147.098 382.008 147.717 382.157 148.261 382.456C148.805 382.744 149.226 383.16 149.525 383.704C149.813 383.192 150.229 382.781 150.773 382.472C151.328 382.163 151.925 382.008 152.565 382.008ZM157.747 386.536C157.747 385.64 157.923 384.845 158.275 384.152C158.637 383.459 159.123 382.925 159.731 382.552C160.349 382.179 161.037 381.992 161.795 381.992C162.456 381.992 163.032 382.125 163.523 382.392C164.024 382.659 164.424 382.995 164.723 383.4V382.136H166.979V391H164.723V389.704C164.435 390.12 164.035 390.467 163.523 390.744C163.021 391.011 162.44 391.144 161.779 391.144C161.032 391.144 160.349 390.952 159.731 390.568C159.123 390.184 158.637 389.645 158.275 388.952C157.923 388.248 157.747 387.443 157.747 386.536ZM164.723 386.568C164.723 386.024 164.616 385.56 164.403 385.176C164.189 384.781 163.901 384.483 163.539 384.28C163.176 384.067 162.787 383.96 162.371 383.96C161.955 383.96 161.571 384.061 161.219 384.264C160.867 384.467 160.579 384.765 160.355 385.16C160.141 385.544 160.035 386.003 160.035 386.536C160.035 387.069 160.141 387.539 160.355 387.944C160.579 388.339 160.867 388.643 161.219 388.856C161.581 389.069 161.965 389.176 162.371 389.176C162.787 389.176 163.176 389.075 163.539 388.872C163.901 388.659 164.189 388.36 164.403 387.976C164.616 387.581 164.723 387.112 164.723 386.568ZM171.215 389.16H175.167V391H168.671V389.192L172.543 383.976H168.687V382.136H175.119V383.944L171.215 389.16ZM180.837 391.144C179.984 391.144 179.216 390.957 178.533 390.584C177.85 390.2 177.312 389.661 176.917 388.968C176.533 388.275 176.341 387.475 176.341 386.568C176.341 385.661 176.538 384.861 176.933 384.168C177.338 383.475 177.888 382.941 178.581 382.568C179.274 382.184 180.048 381.992 180.901 381.992C181.754 381.992 182.528 382.184 183.221 382.568C183.914 382.941 184.458 383.475 184.853 384.168C185.258 384.861 185.461 385.661 185.461 386.568C185.461 387.475 185.253 388.275 184.837 388.968C184.432 389.661 183.877 390.2 183.173 390.584C182.48 390.957 181.701 391.144 180.837 391.144ZM180.837 389.192C181.242 389.192 181.621 389.096 181.973 388.904C182.336 388.701 182.624 388.403 182.837 388.008C183.05 387.613 183.157 387.133 183.157 386.568C183.157 385.725 182.933 385.08 182.485 384.632C182.048 384.173 181.509 383.944 180.869 383.944C180.229 383.944 179.69 384.173 179.253 384.632C178.826 385.08 178.613 385.725 178.613 386.568C178.613 387.411 178.821 388.061 179.237 388.52C179.664 388.968 180.197 389.192 180.837 389.192ZM192.016 382.008C193.072 382.008 193.925 382.344 194.576 383.016C195.227 383.677 195.552 384.605 195.552 385.8V391H193.312V386.104C193.312 385.4 193.136 384.861 192.784 384.488C192.432 384.104 191.952 383.912 191.344 383.912C190.725 383.912 190.235 384.104 189.872 384.488C189.52 384.861 189.344 385.4 189.344 386.104V391H187.104V382.136H189.344V383.24C189.643 382.856 190.021 382.557 190.48 382.344C190.949 382.12 191.461 382.008 192.016 382.008ZM204.887 391.144C204.161 391.144 203.511 391.016 202.935 390.76C202.359 390.493 201.9 390.136 201.559 389.688C201.228 389.24 201.047 388.744 201.015 388.2H203.271C203.313 388.541 203.479 388.824 203.767 389.048C204.065 389.272 204.433 389.384 204.871 389.384C205.297 389.384 205.628 389.299 205.863 389.128C206.108 388.957 206.231 388.739 206.231 388.472C206.231 388.184 206.081 387.971 205.783 387.832C205.495 387.683 205.031 387.523 204.391 387.352C203.729 387.192 203.185 387.027 202.759 386.856C202.343 386.685 201.98 386.424 201.671 386.072C201.372 385.72 201.223 385.245 201.223 384.648C201.223 384.157 201.361 383.709 201.639 383.304C201.927 382.899 202.332 382.579 202.855 382.344C203.388 382.109 204.012 381.992 204.727 381.992C205.783 381.992 206.625 382.259 207.255 382.792C207.884 383.315 208.231 384.024 208.295 384.92H206.151C206.119 384.568 205.969 384.291 205.703 384.088C205.447 383.875 205.1 383.768 204.663 383.768C204.257 383.768 203.943 383.843 203.719 383.992C203.505 384.141 203.399 384.349 203.399 384.616C203.399 384.915 203.548 385.144 203.847 385.304C204.145 385.453 204.609 385.608 205.239 385.768C205.879 385.928 206.407 386.093 206.823 386.264C207.239 386.435 207.596 386.701 207.895 387.064C208.204 387.416 208.364 387.885 208.375 388.472C208.375 388.984 208.231 389.443 207.943 389.848C207.665 390.253 207.26 390.573 206.727 390.808C206.204 391.032 205.591 391.144 204.887 391.144ZM218.453 386.376C218.453 386.696 218.432 386.984 218.389 387.24H211.909C211.963 387.88 212.187 388.381 212.581 388.744C212.976 389.107 213.461 389.288 214.037 389.288C214.869 389.288 215.461 388.931 215.813 388.216H218.229C217.973 389.069 217.483 389.773 216.757 390.328C216.032 390.872 215.141 391.144 214.085 391.144C213.232 391.144 212.464 390.957 211.781 390.584C211.109 390.2 210.581 389.661 210.197 388.968C209.824 388.275 209.637 387.475 209.637 386.568C209.637 385.651 209.824 384.845 210.197 384.152C210.571 383.459 211.093 382.925 211.765 382.552C212.437 382.179 213.211 381.992 214.085 381.992C214.928 381.992 215.68 382.173 216.341 382.536C217.013 382.899 217.531 383.416 217.893 384.088C218.267 384.749 218.453 385.512 218.453 386.376ZM216.133 385.736C216.123 385.16 215.915 384.701 215.509 384.36C215.104 384.008 214.608 383.832 214.021 383.832C213.467 383.832 212.997 384.003 212.613 384.344C212.24 384.675 212.011 385.139 211.925 385.736H216.133ZM222.328 379.16V391H220.088V379.16H222.328ZM226.782 379.16V391H224.542V379.16H226.782ZM237.235 386.376C237.235 386.696 237.213 386.984 237.171 387.24H230.691C230.744 387.88 230.968 388.381 231.363 388.744C231.757 389.107 232.243 389.288 232.819 389.288C233.651 389.288 234.243 388.931 234.595 388.216H237.011C236.755 389.069 236.264 389.773 235.539 390.328C234.813 390.872 233.923 391.144 232.867 391.144C232.013 391.144 231.245 390.957 230.563 390.584C229.891 390.2 229.363 389.661 228.979 388.968C228.605 388.275 228.419 387.475 228.419 386.568C228.419 385.651 228.605 384.845 228.979 384.152C229.352 383.459 229.875 382.925 230.547 382.552C231.219 382.179 231.992 381.992 232.867 381.992C233.709 381.992 234.461 382.173 235.123 382.536C235.795 382.899 236.312 383.416 236.675 384.088C237.048 384.749 237.235 385.512 237.235 386.376ZM234.915 385.736C234.904 385.16 234.696 384.701 234.291 384.36C233.885 384.008 233.389 383.832 232.803 383.832C232.248 383.832 231.779 384.003 231.395 384.344C231.021 384.675 230.792 385.139 230.707 385.736H234.915ZM241.11 383.512C241.398 383.043 241.771 382.675 242.23 382.408C242.699 382.141 243.232 382.008 243.83 382.008V384.36H243.238C242.534 384.36 242 384.525 241.638 384.856C241.286 385.187 241.11 385.763 241.11 386.584V391H238.87V382.136H241.11V383.512ZM248.927 382.408C248.98 381.341 249.354 380.52 250.047 379.944C250.751 379.357 251.674 379.064 252.815 379.064C253.594 379.064 254.26 379.203 254.815 379.48C255.37 379.747 255.786 380.115 256.063 380.584C256.351 381.043 256.495 381.565 256.495 382.152C256.495 382.824 256.319 383.395 255.967 383.864C255.626 384.323 255.215 384.632 254.735 384.792V384.856C255.354 385.048 255.834 385.389 256.175 385.88C256.527 386.371 256.703 387 256.703 387.768C256.703 388.408 256.554 388.979 256.255 389.48C255.967 389.981 255.535 390.376 254.959 390.664C254.394 390.941 253.711 391.08 252.911 391.08C251.706 391.08 250.724 390.776 249.967 390.168C249.21 389.56 248.81 388.664 248.767 387.48H250.943C250.964 388.003 251.14 388.424 251.471 388.744C251.812 389.053 252.276 389.208 252.863 389.208C253.407 389.208 253.823 389.059 254.111 388.76C254.41 388.451 254.559 388.056 254.559 387.576C254.559 386.936 254.356 386.477 253.951 386.2C253.546 385.923 252.916 385.784 252.063 385.784H251.599V383.944H252.063C253.578 383.944 254.335 383.437 254.335 382.424C254.335 381.965 254.196 381.608 253.919 381.352C253.652 381.096 253.263 380.968 252.751 380.968C252.25 380.968 251.86 381.107 251.583 381.384C251.316 381.651 251.162 381.992 251.119 382.408H248.927Z" fill="#11133C"/>
<path d="M132.252 413.108C131.748 413.108 131.296 413.024 130.896 412.856C130.496 412.68 130.18 412.44 129.948 412.136C129.716 411.824 129.588 411.468 129.564 411.068H130.692C130.724 411.396 130.876 411.664 131.148 411.872C131.428 412.08 131.792 412.184 132.24 412.184C132.656 412.184 132.984 412.092 133.224 411.908C133.464 411.724 133.584 411.492 133.584 411.212C133.584 410.924 133.456 410.712 133.2 410.576C132.944 410.432 132.548 410.292 132.012 410.156C131.524 410.028 131.124 409.9 130.812 409.772C130.508 409.636 130.244 409.44 130.02 409.184C129.804 408.92 129.696 408.576 129.696 408.152C129.696 407.816 129.796 407.508 129.996 407.228C130.196 406.948 130.48 406.728 130.848 406.568C131.216 406.4 131.636 406.316 132.108 406.316C132.836 406.316 133.424 406.5 133.872 406.868C134.32 407.236 134.56 407.74 134.592 408.38H133.5C133.476 408.036 133.336 407.76 133.08 407.552C132.832 407.344 132.496 407.24 132.072 407.24C131.68 407.24 131.368 407.324 131.136 407.492C130.904 407.66 130.788 407.88 130.788 408.152C130.788 408.368 130.856 408.548 130.992 408.692C131.136 408.828 131.312 408.94 131.52 409.028C131.736 409.108 132.032 409.2 132.408 409.304C132.88 409.432 133.264 409.56 133.56 409.688C133.856 409.808 134.108 409.992 134.316 410.24C134.532 410.488 134.644 410.812 134.652 411.212C134.652 411.572 134.552 411.896 134.352 412.184C134.152 412.472 133.868 412.7 133.5 412.868C133.14 413.028 132.724 413.108 132.252 413.108ZM142.194 409.46C142.194 409.668 142.182 409.888 142.158 410.12H136.902C136.942 410.768 137.162 411.276 137.562 411.644C137.97 412.004 138.462 412.184 139.038 412.184C139.51 412.184 139.902 412.076 140.214 411.86C140.534 411.636 140.758 411.34 140.886 410.972H142.062C141.886 411.604 141.534 412.12 141.006 412.52C140.478 412.912 139.822 413.108 139.038 413.108C138.414 413.108 137.854 412.968 137.358 412.688C136.87 412.408 136.486 412.012 136.206 411.5C135.926 410.98 135.786 410.38 135.786 409.7C135.786 409.02 135.922 408.424 136.194 407.912C136.466 407.4 136.846 407.008 137.334 406.736C137.83 406.456 138.398 406.316 139.038 406.316C139.662 406.316 140.214 406.452 140.694 406.724C141.174 406.996 141.542 407.372 141.798 407.852C142.062 408.324 142.194 408.86 142.194 409.46ZM141.066 409.232C141.066 408.816 140.974 408.46 140.79 408.164C140.606 407.86 140.354 407.632 140.034 407.48C139.722 407.32 139.374 407.24 138.99 407.24C138.438 407.24 137.966 407.416 137.574 407.768C137.19 408.12 136.97 408.608 136.914 409.232H141.066ZM144.727 404.12V413H143.635V404.12H144.727ZM147.68 404.12V413H146.588V404.12H147.68ZM155.541 409.46C155.541 409.668 155.529 409.888 155.505 410.12H150.249C150.289 410.768 150.509 411.276 150.909 411.644C151.317 412.004 151.809 412.184 152.385 412.184C152.857 412.184 153.249 412.076 153.561 411.86C153.881 411.636 154.105 411.34 154.233 410.972H155.409C155.233 411.604 154.881 412.12 154.353 412.52C153.825 412.912 153.169 413.108 152.385 413.108C151.761 413.108 151.201 412.968 150.705 412.688C150.217 412.408 149.833 412.012 149.553 411.5C149.273 410.98 149.133 410.38 149.133 409.7C149.133 409.02 149.269 408.424 149.541 407.912C149.813 407.4 150.193 407.008 150.681 406.736C151.177 406.456 151.745 406.316 152.385 406.316C153.009 406.316 153.561 406.452 154.041 406.724C154.521 406.996 154.889 407.372 155.145 407.852C155.409 408.324 155.541 408.86 155.541 409.46ZM154.413 409.232C154.413 408.816 154.321 408.46 154.137 408.164C153.953 407.86 153.701 407.632 153.381 407.48C153.069 407.32 152.721 407.24 152.337 407.24C151.785 407.24 151.313 407.416 150.921 407.768C150.537 408.12 150.317 408.608 150.261 409.232H154.413ZM158.075 407.492C158.267 407.116 158.539 406.824 158.891 406.616C159.251 406.408 159.687 406.304 160.199 406.304V407.432H159.911C158.687 407.432 158.075 408.096 158.075 409.424V413H156.983V406.424H158.075V407.492ZM162.791 407.324V411.2C162.791 411.52 162.859 411.748 162.995 411.884C163.131 412.012 163.367 412.076 163.703 412.076H164.507V413H163.523C162.915 413 162.459 412.86 162.155 412.58C161.851 412.3 161.699 411.84 161.699 411.2V407.324H160.847V406.424H161.699V404.768H162.791V406.424H164.507V407.324H162.791ZM169.094 406.304C169.59 406.304 170.038 406.412 170.438 406.628C170.838 406.836 171.15 407.152 171.374 407.576C171.606 408 171.722 408.516 171.722 409.124V413H170.642V409.28C170.642 408.624 170.478 408.124 170.15 407.78C169.822 407.428 169.374 407.252 168.806 407.252C168.23 407.252 167.77 407.432 167.426 407.792C167.09 408.152 166.922 408.676 166.922 409.364V413H165.83V404.12H166.922V407.36C167.138 407.024 167.434 406.764 167.81 406.58C168.194 406.396 168.622 406.304 169.094 406.304ZM174.598 407.492C174.79 407.116 175.062 406.824 175.414 406.616C175.774 406.408 176.21 406.304 176.722 406.304V407.432H176.434C175.21 407.432 174.598 408.096 174.598 409.424V413H173.506V406.424H174.598V407.492ZM183.983 409.46C183.983 409.668 183.971 409.888 183.947 410.12H178.691C178.731 410.768 178.951 411.276 179.351 411.644C179.759 412.004 180.251 412.184 180.827 412.184C181.299 412.184 181.691 412.076 182.003 411.86C182.323 411.636 182.547 411.34 182.675 410.972H183.851C183.675 411.604 183.323 412.12 182.795 412.52C182.267 412.912 181.611 413.108 180.827 413.108C180.203 413.108 179.643 412.968 179.147 412.688C178.659 412.408 178.275 412.012 177.995 411.5C177.715 410.98 177.575 410.38 177.575 409.7C177.575 409.02 177.711 408.424 177.983 407.912C178.255 407.4 178.635 407.008 179.123 406.736C179.619 406.456 180.187 406.316 180.827 406.316C181.451 406.316 182.003 406.452 182.483 406.724C182.963 406.996 183.331 407.372 183.587 407.852C183.851 408.324 183.983 408.86 183.983 409.46ZM182.855 409.232C182.855 408.816 182.763 408.46 182.579 408.164C182.395 407.86 182.143 407.632 181.823 407.48C181.511 407.32 181.163 407.24 180.779 407.24C180.227 407.24 179.755 407.416 179.363 407.768C178.979 408.12 178.759 408.608 178.703 409.232H182.855ZM191.424 409.46C191.424 409.668 191.412 409.888 191.388 410.12H186.132C186.172 410.768 186.392 411.276 186.792 411.644C187.2 412.004 187.692 412.184 188.268 412.184C188.74 412.184 189.132 412.076 189.444 411.86C189.764 411.636 189.988 411.34 190.116 410.972H191.292C191.116 411.604 190.764 412.12 190.236 412.52C189.708 412.912 189.052 413.108 188.268 413.108C187.644 413.108 187.084 412.968 186.588 412.688C186.1 412.408 185.716 412.012 185.436 411.5C185.156 410.98 185.016 410.38 185.016 409.7C185.016 409.02 185.152 408.424 185.424 407.912C185.696 407.4 186.076 407.008 186.564 406.736C187.06 406.456 187.628 406.316 188.268 406.316C188.892 406.316 189.444 406.452 189.924 406.724C190.404 406.996 190.772 407.372 191.028 407.852C191.292 408.324 191.424 408.86 191.424 409.46ZM190.296 409.232C190.296 408.816 190.204 408.46 190.02 408.164C189.836 407.86 189.584 407.632 189.264 407.48C188.952 407.32 188.604 407.24 188.22 407.24C187.668 407.24 187.196 407.416 186.804 407.768C186.42 408.12 186.2 408.608 186.144 409.232H190.296ZM193.213 413.072C193.005 413.072 192.829 413 192.685 412.856C192.541 412.712 192.469 412.536 192.469 412.328C192.469 412.12 192.541 411.944 192.685 411.8C192.829 411.656 193.005 411.584 193.213 411.584C193.413 411.584 193.581 411.656 193.717 411.8C193.861 411.944 193.933 412.12 193.933 412.328C193.933 412.536 193.861 412.712 193.717 412.856C193.581 413 193.413 413.072 193.213 413.072ZM194.977 409.7C194.977 409.02 195.113 408.428 195.385 407.924C195.657 407.412 196.033 407.016 196.513 406.736C197.001 406.456 197.557 406.316 198.181 406.316C198.989 406.316 199.653 406.512 200.173 406.904C200.701 407.296 201.049 407.84 201.217 408.536H200.041C199.929 408.136 199.709 407.82 199.381 407.588C199.061 407.356 198.661 407.24 198.181 407.24C197.557 407.24 197.053 407.456 196.669 407.888C196.285 408.312 196.093 408.916 196.093 409.7C196.093 410.492 196.285 411.104 196.669 411.536C197.053 411.968 197.557 412.184 198.181 412.184C198.661 412.184 199.061 412.072 199.381 411.848C199.701 411.624 199.921 411.304 200.041 410.888H201.217C201.041 411.56 200.689 412.1 200.161 412.508C199.633 412.908 198.973 413.108 198.181 413.108C197.557 413.108 197.001 412.968 196.513 412.688C196.033 412.408 195.657 412.012 195.385 411.5C195.113 410.988 194.977 410.388 194.977 409.7ZM205.542 413.108C204.926 413.108 204.366 412.968 203.862 412.688C203.366 412.408 202.974 412.012 202.686 411.5C202.406 410.98 202.266 410.38 202.266 409.7C202.266 409.028 202.41 408.436 202.698 407.924C202.994 407.404 203.394 407.008 203.898 406.736C204.402 406.456 204.966 406.316 205.59 406.316C206.214 406.316 206.778 406.456 207.282 406.736C207.786 407.008 208.182 407.4 208.47 407.912C208.766 408.424 208.914 409.02 208.914 409.7C208.914 410.38 208.762 410.98 208.458 411.5C208.162 412.012 207.758 412.408 207.246 412.688C206.734 412.968 206.166 413.108 205.542 413.108ZM205.542 412.148C205.934 412.148 206.302 412.056 206.646 411.872C206.99 411.688 207.266 411.412 207.474 411.044C207.69 410.676 207.798 410.228 207.798 409.7C207.798 409.172 207.694 408.724 207.486 408.356C207.278 407.988 207.006 407.716 206.67 407.54C206.334 407.356 205.97 407.264 205.578 407.264C205.178 407.264 204.81 407.356 204.474 407.54C204.146 407.716 203.882 407.988 203.682 408.356C203.482 408.724 203.382 409.172 203.382 409.7C203.382 410.236 203.478 410.688 203.67 411.056C203.87 411.424 204.134 411.7 204.462 411.884C204.79 412.06 205.15 412.148 205.542 412.148ZM218.258 406.304C218.77 406.304 219.226 406.412 219.626 406.628C220.026 406.836 220.342 407.152 220.574 407.576C220.806 408 220.922 408.516 220.922 409.124V413H219.842V409.28C219.842 408.624 219.678 408.124 219.35 407.78C219.03 407.428 218.594 407.252 218.042 407.252C217.474 407.252 217.022 407.436 216.686 407.804C216.35 408.164 216.182 408.688 216.182 409.376V413H215.102V409.28C215.102 408.624 214.938 408.124 214.61 407.78C214.29 407.428 213.854 407.252 213.302 407.252C212.734 407.252 212.282 407.436 211.946 407.804C211.61 408.164 211.442 408.688 211.442 409.376V413H210.35V406.424H211.442V407.372C211.658 407.028 211.946 406.764 212.306 406.58C212.674 406.396 213.078 406.304 213.518 406.304C214.07 406.304 214.558 406.428 214.982 406.676C215.406 406.924 215.722 407.288 215.93 407.768C216.114 407.304 216.418 406.944 216.842 406.688C217.266 406.432 217.738 406.304 218.258 406.304Z" fill="#696B78"/>
<circle cx="80" cy="501" r="28" fill="#E6F1FB"/>
<path d="M80 491C74.486 491 70 495.486 70 501C70 506.514 74.486 511 80 511C85.514 511 90 506.514 90 501C90 495.486 85.514 491 80 491ZM72 501C72 500.101 72.156 499.238 72.431 498.431L74 500L76 502V504L78 506L79 507V508.931C75.061 508.436 72 505.072 72 501ZM86.33 505.873C85.677 505.347 84.687 505 84 505V504C84 503.47 83.7893 502.961 83.4142 502.586C83.0391 502.211 82.5304 502 82 502H78V499C78.5304 499 79.0391 498.789 79.4142 498.414C79.7893 498.039 80 497.53 80 497V496H81C81.5304 496 82.0391 495.789 82.4142 495.414C82.7893 495.039 83 494.53 83 494V493.589C85.928 494.778 88 497.65 88 501C87.9998 502.765 87.4123 504.479 86.33 505.873Z" fill="black"/>
<path d="M136.952 492.872H132.504L131.768 495H129.416L133.432 483.816H136.04L140.056 495H137.688L136.952 492.872ZM136.344 491.08L134.728 486.408L133.112 491.08H136.344ZM152.565 486.008C153.653 486.008 154.528 486.344 155.189 487.016C155.861 487.677 156.197 488.605 156.197 489.8V495H153.957V490.104C153.957 489.411 153.781 488.883 153.429 488.52C153.077 488.147 152.597 487.96 151.989 487.96C151.381 487.96 150.896 488.147 150.533 488.52C150.181 488.883 150.005 489.411 150.005 490.104V495H147.765V490.104C147.765 489.411 147.589 488.883 147.237 488.52C146.885 488.147 146.405 487.96 145.797 487.96C145.178 487.96 144.688 488.147 144.325 488.52C143.973 488.883 143.797 489.411 143.797 490.104V495H141.557V486.136H143.797V487.208C144.085 486.835 144.453 486.541 144.901 486.328C145.36 486.115 145.861 486.008 146.405 486.008C147.098 486.008 147.717 486.157 148.261 486.456C148.805 486.744 149.226 487.16 149.525 487.704C149.813 487.192 150.229 486.781 150.773 486.472C151.328 486.163 151.925 486.008 152.565 486.008ZM157.747 490.536C157.747 489.64 157.923 488.845 158.275 488.152C158.637 487.459 159.123 486.925 159.731 486.552C160.349 486.179 161.037 485.992 161.795 485.992C162.456 485.992 163.032 486.125 163.523 486.392C164.024 486.659 164.424 486.995 164.723 487.4V486.136H166.979V495H164.723V493.704C164.435 494.12 164.035 494.467 163.523 494.744C163.021 495.011 162.44 495.144 161.779 495.144C161.032 495.144 160.349 494.952 159.731 494.568C159.123 494.184 158.637 493.645 158.275 492.952C157.923 492.248 157.747 491.443 157.747 490.536ZM164.723 490.568C164.723 490.024 164.616 489.56 164.403 489.176C164.189 488.781 163.901 488.483 163.539 488.28C163.176 488.067 162.787 487.96 162.371 487.96C161.955 487.96 161.571 488.061 161.219 488.264C160.867 488.467 160.579 488.765 160.355 489.16C160.141 489.544 160.035 490.003 160.035 490.536C160.035 491.069 160.141 491.539 160.355 491.944C160.579 492.339 160.867 492.643 161.219 492.856C161.581 493.069 161.965 493.176 162.371 493.176C162.787 493.176 163.176 493.075 163.539 492.872C163.901 492.659 164.189 492.36 164.403 491.976C164.616 491.581 164.723 491.112 164.723 490.568ZM171.215 493.16H175.167V495H168.671V493.192L172.543 487.976H168.687V486.136H175.119V487.944L171.215 493.16ZM180.837 495.144C179.984 495.144 179.216 494.957 178.533 494.584C177.85 494.2 177.312 493.661 176.917 492.968C176.533 492.275 176.341 491.475 176.341 490.568C176.341 489.661 176.538 488.861 176.933 488.168C177.338 487.475 177.888 486.941 178.581 486.568C179.274 486.184 180.048 485.992 180.901 485.992C181.754 485.992 182.528 486.184 183.221 486.568C183.914 486.941 184.458 487.475 184.853 488.168C185.258 488.861 185.461 489.661 185.461 490.568C185.461 491.475 185.253 492.275 184.837 492.968C184.432 493.661 183.877 494.2 183.173 494.584C182.48 494.957 181.701 495.144 180.837 495.144ZM180.837 493.192C181.242 493.192 181.621 493.096 181.973 492.904C182.336 492.701 182.624 492.403 182.837 492.008C183.05 491.613 183.157 491.133 183.157 490.568C183.157 489.725 182.933 489.08 182.485 488.632C182.048 488.173 181.509 487.944 180.869 487.944C180.229 487.944 179.69 488.173 179.253 488.632C178.826 489.08 178.613 489.725 178.613 490.568C178.613 491.411 178.821 492.061 179.237 492.52C179.664 492.968 180.197 493.192 180.837 493.192ZM192.016 486.008C193.072 486.008 193.925 486.344 194.576 487.016C195.227 487.677 195.552 488.605 195.552 489.8V495H193.312V490.104C193.312 489.4 193.136 488.861 192.784 488.488C192.432 488.104 191.952 487.912 191.344 487.912C190.725 487.912 190.235 488.104 189.872 488.488C189.52 488.861 189.344 489.4 189.344 490.104V495H187.104V486.136H189.344V487.24C189.643 486.856 190.021 486.557 190.48 486.344C190.949 486.12 191.461 486.008 192.016 486.008ZM204.887 495.144C204.161 495.144 203.511 495.016 202.935 494.76C202.359 494.493 201.9 494.136 201.559 493.688C201.228 493.24 201.047 492.744 201.015 492.2H203.271C203.313 492.541 203.479 492.824 203.767 493.048C204.065 493.272 204.433 493.384 204.871 493.384C205.297 493.384 205.628 493.299 205.863 493.128C206.108 492.957 206.231 492.739 206.231 492.472C206.231 492.184 206.081 491.971 205.783 491.832C205.495 491.683 205.031 491.523 204.391 491.352C203.729 491.192 203.185 491.027 202.759 490.856C202.343 490.685 201.98 490.424 201.671 490.072C201.372 489.72 201.223 489.245 201.223 488.648C201.223 488.157 201.361 487.709 201.639 487.304C201.927 486.899 202.332 486.579 202.855 486.344C203.388 486.109 204.012 485.992 204.727 485.992C205.783 485.992 206.625 486.259 207.255 486.792C207.884 487.315 208.231 488.024 208.295 488.92H206.151C206.119 488.568 205.969 488.291 205.703 488.088C205.447 487.875 205.1 487.768 204.663 487.768C204.257 487.768 203.943 487.843 203.719 487.992C203.505 488.141 203.399 488.349 203.399 488.616C203.399 488.915 203.548 489.144 203.847 489.304C204.145 489.453 204.609 489.608 205.239 489.768C205.879 489.928 206.407 490.093 206.823 490.264C207.239 490.435 207.596 490.701 207.895 491.064C208.204 491.416 208.364 491.885 208.375 492.472C208.375 492.984 208.231 493.443 207.943 493.848C207.665 494.253 207.26 494.573 206.727 494.808C206.204 495.032 205.591 495.144 204.887 495.144ZM218.453 490.376C218.453 490.696 218.432 490.984 218.389 491.24H211.909C211.963 491.88 212.187 492.381 212.581 492.744C212.976 493.107 213.461 493.288 214.037 493.288C214.869 493.288 215.461 492.931 215.813 492.216H218.229C217.973 493.069 217.483 493.773 216.757 494.328C216.032 494.872 215.141 495.144 214.085 495.144C213.232 495.144 212.464 494.957 211.781 494.584C211.109 494.2 210.581 493.661 210.197 492.968C209.824 492.275 209.637 491.475 209.637 490.568C209.637 489.651 209.824 488.845 210.197 488.152C210.571 487.459 211.093 486.925 211.765 486.552C212.437 486.179 213.211 485.992 214.085 485.992C214.928 485.992 215.68 486.173 216.341 486.536C217.013 486.899 217.531 487.416 217.893 488.088C218.267 488.749 218.453 489.512 218.453 490.376ZM216.133 489.736C216.123 489.16 215.915 488.701 215.509 488.36C215.104 488.008 214.608 487.832 214.021 487.832C213.467 487.832 212.997 488.003 212.613 488.344C212.24 488.675 212.011 489.139 211.925 489.736H216.133ZM222.328 483.16V495H220.088V483.16H222.328ZM226.782 483.16V495H224.542V483.16H226.782ZM237.235 490.376C237.235 490.696 237.213 490.984 237.171 491.24H230.691C230.744 491.88 230.968 492.381 231.363 492.744C231.757 493.107 232.243 493.288 232.819 493.288C233.651 493.288 234.243 492.931 234.595 492.216H237.011C236.755 493.069 236.264 493.773 235.539 494.328C234.813 494.872 233.923 495.144 232.867 495.144C232.013 495.144 231.245 494.957 230.563 494.584C229.891 494.2 229.363 493.661 228.979 492.968C228.605 492.275 228.419 491.475 228.419 490.568C228.419 489.651 228.605 488.845 228.979 488.152C229.352 487.459 229.875 486.925 230.547 486.552C231.219 486.179 231.992 485.992 232.867 485.992C233.709 485.992 234.461 486.173 235.123 486.536C235.795 486.899 236.312 487.416 236.675 488.088C237.048 488.749 237.235 489.512 237.235 490.376ZM234.915 489.736C234.904 489.16 234.696 488.701 234.291 488.36C233.885 488.008 233.389 487.832 232.803 487.832C232.248 487.832 231.779 488.003 231.395 488.344C231.021 488.675 230.792 489.139 230.707 489.736H234.915ZM241.11 487.512C241.398 487.043 241.771 486.675 242.23 486.408C242.699 486.141 243.232 486.008 243.83 486.008V488.36H243.238C242.534 488.36 242 488.525 241.638 488.856C241.286 489.187 241.11 489.763 241.11 490.584V495H238.87V486.136H241.11V487.512ZM248.799 492.728V490.968L254.031 483.48H256.639V490.776H258.047V492.728H256.639V495H254.399V492.728H248.799ZM254.543 485.88L251.263 490.776H254.543V485.88Z" fill="#11133C"/>
<path d="M132.252 517.108C131.748 517.108 131.296 517.024 130.896 516.856C130.496 516.68 130.18 516.44 129.948 516.136C129.716 515.824 129.588 515.468 129.564 515.068H130.692C130.724 515.396 130.876 515.664 131.148 515.872C131.428 516.08 131.792 516.184 132.24 516.184C132.656 516.184 132.984 516.092 133.224 515.908C133.464 515.724 133.584 515.492 133.584 515.212C133.584 514.924 133.456 514.712 133.2 514.576C132.944 514.432 132.548 514.292 132.012 514.156C131.524 514.028 131.124 513.9 130.812 513.772C130.508 513.636 130.244 513.44 130.02 513.184C129.804 512.92 129.696 512.576 129.696 512.152C129.696 511.816 129.796 511.508 129.996 511.228C130.196 510.948 130.48 510.728 130.848 510.568C131.216 510.4 131.636 510.316 132.108 510.316C132.836 510.316 133.424 510.5 133.872 510.868C134.32 511.236 134.56 511.74 134.592 512.38H133.5C133.476 512.036 133.336 511.76 133.08 511.552C132.832 511.344 132.496 511.24 132.072 511.24C131.68 511.24 131.368 511.324 131.136 511.492C130.904 511.66 130.788 511.88 130.788 512.152C130.788 512.368 130.856 512.548 130.992 512.692C131.136 512.828 131.312 512.94 131.52 513.028C131.736 513.108 132.032 513.2 132.408 513.304C132.88 513.432 133.264 513.56 133.56 513.688C133.856 513.808 134.108 513.992 134.316 514.24C134.532 514.488 134.644 514.812 134.652 515.212C134.652 515.572 134.552 515.896 134.352 516.184C134.152 516.472 133.868 516.7 133.5 516.868C133.14 517.028 132.724 517.108 132.252 517.108ZM142.194 513.46C142.194 513.668 142.182 513.888 142.158 514.12H136.902C136.942 514.768 137.162 515.276 137.562 515.644C137.97 516.004 138.462 516.184 139.038 516.184C139.51 516.184 139.902 516.076 140.214 515.86C140.534 515.636 140.758 515.34 140.886 514.972H142.062C141.886 515.604 141.534 516.12 141.006 516.52C140.478 516.912 139.822 517.108 139.038 517.108C138.414 517.108 137.854 516.968 137.358 516.688C136.87 516.408 136.486 516.012 136.206 515.5C135.926 514.98 135.786 514.38 135.786 513.7C135.786 513.02 135.922 512.424 136.194 511.912C136.466 511.4 136.846 511.008 137.334 510.736C137.83 510.456 138.398 510.316 139.038 510.316C139.662 510.316 140.214 510.452 140.694 510.724C141.174 510.996 141.542 511.372 141.798 511.852C142.062 512.324 142.194 512.86 142.194 513.46ZM141.066 513.232C141.066 512.816 140.974 512.46 140.79 512.164C140.606 511.86 140.354 511.632 140.034 511.48C139.722 511.32 139.374 511.24 138.99 511.24C138.438 511.24 137.966 511.416 137.574 511.768C137.19 512.12 136.97 512.608 136.914 513.232H141.066ZM144.727 508.12V517H143.635V508.12H144.727ZM147.68 508.12V517H146.588V508.12H147.68ZM155.541 513.46C155.541 513.668 155.529 513.888 155.505 514.12H150.249C150.289 514.768 150.509 515.276 150.909 515.644C151.317 516.004 151.809 516.184 152.385 516.184C152.857 516.184 153.249 516.076 153.561 515.86C153.881 515.636 154.105 515.34 154.233 514.972H155.409C155.233 515.604 154.881 516.12 154.353 516.52C153.825 516.912 153.169 517.108 152.385 517.108C151.761 517.108 151.201 516.968 150.705 516.688C150.217 516.408 149.833 516.012 149.553 515.5C149.273 514.98 149.133 514.38 149.133 513.7C149.133 513.02 149.269 512.424 149.541 511.912C149.813 511.4 150.193 511.008 150.681 510.736C151.177 510.456 151.745 510.316 152.385 510.316C153.009 510.316 153.561 510.452 154.041 510.724C154.521 510.996 154.889 511.372 155.145 511.852C155.409 512.324 155.541 512.86 155.541 513.46ZM154.413 513.232C154.413 512.816 154.321 512.46 154.137 512.164C153.953 511.86 153.701 511.632 153.381 511.48C153.069 511.32 152.721 511.24 152.337 511.24C151.785 511.24 151.313 511.416 150.921 511.768C150.537 512.12 150.317 512.608 150.261 513.232H154.413ZM158.075 511.492C158.267 511.116 158.539 510.824 158.891 510.616C159.251 510.408 159.687 510.304 160.199 510.304V511.432H159.911C158.687 511.432 158.075 512.096 158.075 513.424V517H156.983V510.424H158.075V511.492ZM164.135 511.324H162.755V517H161.663V511.324H160.811V510.424H161.663V509.956C161.663 509.22 161.851 508.684 162.227 508.348C162.611 508.004 163.223 507.832 164.063 507.832V508.744C163.583 508.744 163.243 508.84 163.043 509.032C162.851 509.216 162.755 509.524 162.755 509.956V510.424H164.135V511.324ZM168.276 517.108C167.66 517.108 167.1 516.968 166.596 516.688C166.1 516.408 165.708 516.012 165.42 515.5C165.14 514.98 165 514.38 165 513.7C165 513.028 165.144 512.436 165.432 511.924C165.728 511.404 166.128 511.008 166.632 510.736C167.136 510.456 167.7 510.316 168.324 510.316C168.948 510.316 169.512 510.456 170.016 510.736C170.52 511.008 170.916 511.4 171.204 511.912C171.5 512.424 171.648 513.02 171.648 513.7C171.648 514.38 171.496 514.98 171.192 515.5C170.896 516.012 170.492 516.408 169.98 516.688C169.468 516.968 168.9 517.108 168.276 517.108ZM168.276 516.148C168.668 516.148 169.036 516.056 169.38 515.872C169.724 515.688 170 515.412 170.208 515.044C170.424 514.676 170.532 514.228 170.532 513.7C170.532 513.172 170.428 512.724 170.22 512.356C170.012 511.988 169.74 511.716 169.404 511.54C169.068 511.356 168.704 511.264 168.312 511.264C167.912 511.264 167.544 511.356 167.208 511.54C166.88 511.716 166.616 511.988 166.416 512.356C166.216 512.724 166.116 513.172 166.116 513.7C166.116 514.236 166.212 514.688 166.404 515.056C166.604 515.424 166.868 515.7 167.196 515.884C167.524 516.06 167.884 516.148 168.276 516.148ZM178.916 510.424V517H177.824V516.028C177.616 516.364 177.324 516.628 176.948 516.82C176.58 517.004 176.172 517.096 175.724 517.096C175.212 517.096 174.752 516.992 174.344 516.784C173.936 516.568 173.612 516.248 173.372 515.824C173.14 515.4 173.024 514.884 173.024 514.276V510.424H174.104V514.132C174.104 514.78 174.268 515.28 174.596 515.632C174.924 515.976 175.372 516.148 175.94 516.148C176.524 516.148 176.984 515.968 177.32 515.608C177.656 515.248 177.824 514.724 177.824 514.036V510.424H178.916ZM181.852 511.492C182.044 511.116 182.316 510.824 182.668 510.616C183.028 510.408 183.464 510.304 183.976 510.304V511.432H183.688C182.464 511.432 181.852 512.096 181.852 513.424V517H180.76V510.424H181.852V511.492ZM185.585 517.072C185.377 517.072 185.201 517 185.057 516.856C184.913 516.712 184.841 516.536 184.841 516.328C184.841 516.12 184.913 515.944 185.057 515.8C185.201 515.656 185.377 515.584 185.585 515.584C185.785 515.584 185.953 515.656 186.089 515.8C186.233 515.944 186.305 516.12 186.305 516.328C186.305 516.536 186.233 516.712 186.089 516.856C185.953 517 185.785 517.072 185.585 517.072ZM187.348 513.7C187.348 513.02 187.484 512.428 187.756 511.924C188.028 511.412 188.404 511.016 188.884 510.736C189.372 510.456 189.928 510.316 190.552 510.316C191.36 510.316 192.024 510.512 192.544 510.904C193.072 511.296 193.42 511.84 193.588 512.536H192.412C192.3 512.136 192.08 511.82 191.752 511.588C191.432 511.356 191.032 511.24 190.552 511.24C189.928 511.24 189.424 511.456 189.04 511.888C188.656 512.312 188.464 512.916 188.464 513.7C188.464 514.492 188.656 515.104 189.04 515.536C189.424 515.968 189.928 516.184 190.552 516.184C191.032 516.184 191.432 516.072 191.752 515.848C192.072 515.624 192.292 515.304 192.412 514.888H193.588C193.412 515.56 193.06 516.1 192.532 516.508C192.004 516.908 191.344 517.108 190.552 517.108C189.928 517.108 189.372 516.968 188.884 516.688C188.404 516.408 188.028 516.012 187.756 515.5C187.484 514.988 187.348 514.388 187.348 513.7ZM197.913 517.108C197.297 517.108 196.737 516.968 196.233 516.688C195.737 516.408 195.345 516.012 195.057 515.5C194.777 514.98 194.637 514.38 194.637 513.7C194.637 513.028 194.781 512.436 195.069 511.924C195.365 511.404 195.765 511.008 196.269 510.736C196.773 510.456 197.337 510.316 197.961 510.316C198.585 510.316 199.149 510.456 199.653 510.736C200.157 511.008 200.553 511.4 200.841 511.912C201.137 512.424 201.285 513.02 201.285 513.7C201.285 514.38 201.133 514.98 200.829 515.5C200.533 516.012 200.129 516.408 199.617 516.688C199.105 516.968 198.537 517.108 197.913 517.108ZM197.913 516.148C198.305 516.148 198.673 516.056 199.017 515.872C199.361 515.688 199.637 515.412 199.845 515.044C200.061 514.676 200.169 514.228 200.169 513.7C200.169 513.172 200.065 512.724 199.857 512.356C199.649 511.988 199.377 511.716 199.041 511.54C198.705 511.356 198.341 511.264 197.949 511.264C197.549 511.264 197.181 511.356 196.845 511.54C196.517 511.716 196.253 511.988 196.053 512.356C195.853 512.724 195.753 513.172 195.753 513.7C195.753 514.236 195.849 514.688 196.041 515.056C196.241 515.424 196.505 515.7 196.833 515.884C197.161 516.06 197.521 516.148 197.913 516.148ZM210.629 510.304C211.141 510.304 211.597 510.412 211.997 510.628C212.397 510.836 212.713 511.152 212.945 511.576C213.177 512 213.293 512.516 213.293 513.124V517H212.213V513.28C212.213 512.624 212.049 512.124 211.721 511.78C211.401 511.428 210.965 511.252 210.413 511.252C209.845 511.252 209.393 511.436 209.057 511.804C208.721 512.164 208.553 512.688 208.553 513.376V517H207.473V513.28C207.473 512.624 207.309 512.124 206.981 511.78C206.661 511.428 206.225 511.252 205.673 511.252C205.105 511.252 204.653 511.436 204.317 511.804C203.981 512.164 203.813 512.688 203.813 513.376V517H202.721V510.424H203.813V511.372C204.029 511.028 204.317 510.764 204.677 510.58C205.045 510.396 205.449 510.304 205.889 510.304C206.441 510.304 206.929 510.428 207.353 510.676C207.777 510.924 208.093 511.288 208.301 511.768C208.485 511.304 208.789 510.944 209.213 510.688C209.637 510.432 210.109 510.304 210.629 510.304Z" fill="#696B78"/>
<path d="M326 398.5C325.788 398.5 325.609 398.428 325.465 398.284C325.321 398.14 325.25 397.962 325.25 397.75C325.25 397.538 325.322 397.359 325.466 397.215C325.61 397.071 325.788 396.999 326 397C326.213 397 326.391 397.072 326.535 397.216C326.679 397.36 326.751 397.538 326.75 397.75C326.75 397.962 326.678 398.141 326.534 398.285C326.39 398.429 326.212 398.5 326 398.5ZM329 398.5C328.788 398.5 328.609 398.428 328.465 398.284C328.321 398.14 328.25 397.962 328.25 397.75C328.25 397.538 328.322 397.359 328.466 397.215C328.61 397.071 328.788 396.999 329 397C329.213 397 329.391 397.072 329.535 397.216C329.679 397.36 329.751 397.538 329.75 397.75C329.75 397.962 329.678 398.141 329.534 398.285C329.39 398.429 329.212 398.5 329 398.5ZM332 398.5C331.788 398.5 331.609 398.428 331.465 398.284C331.321 398.14 331.25 397.962 331.25 397.75C331.25 397.538 331.322 397.359 331.466 397.215C331.61 397.071 331.788 396.999 332 397C332.213 397 332.391 397.072 332.535 397.216C332.679 397.36 332.751 397.538 332.75 397.75C332.75 397.962 332.678 398.141 332.534 398.285C332.39 398.429 332.212 398.5 332 398.5ZM323.75 404.5C323.338 404.5 322.984 404.353 322.69 404.059C322.396 403.765 322.25 403.412 322.25 403V392.5C322.25 392.088 322.397 391.734 322.691 391.44C322.985 391.146 323.338 391 323.75 391H324.5V389.5H326V391H332V389.5H333.5V391H334.25C334.663 391 335.016 391.147 335.31 391.441C335.604 391.735 335.751 392.088 335.75 392.5V403C335.75 403.413 335.603 403.766 335.309 404.06C335.015 404.354 334.662 404.5 334.25 404.5H323.75ZM323.75 403H334.25V395.5H323.75V403ZM323.75 394H334.25V392.5H323.75V394Z" fill="#11133C"/>
<path d="M356.25 392.125C356.25 398.545 361.455 403.75 367.875 403.75C368.165 403.75 368.452 403.739 368.736 403.719C369.063 403.695 369.226 403.683 369.374 403.597C369.497 403.526 369.614 403.401 369.676 403.273C369.75 403.119 369.75 402.939 369.75 402.578V400.466C369.75 400.163 369.75 400.011 369.7 399.882C369.656 399.767 369.585 399.665 369.492 399.584C369.387 399.493 369.245 399.441 368.96 399.338L366.555 398.463C366.224 398.343 366.058 398.283 365.901 398.293C365.763 398.302 365.629 398.349 365.516 398.429C365.388 398.52 365.297 398.671 365.116 398.974L364.5 400C362.513 399.1 360.901 397.487 360 395.5L361.026 394.884C361.329 394.703 361.48 394.612 361.571 394.484C361.651 394.371 361.698 394.237 361.707 394.099C361.717 393.942 361.657 393.776 361.537 393.445L360.662 391.04C360.559 390.755 360.507 390.613 360.416 390.508C360.335 390.415 360.233 390.344 360.119 390.3C359.989 390.25 359.837 390.25 359.534 390.25H357.422C357.061 390.25 356.881 390.25 356.727 390.324C356.599 390.386 356.474 390.503 356.403 390.626C356.317 390.774 356.305 390.937 356.281 391.264C356.261 391.548 356.25 391.835 356.25 392.125Z" stroke="#11133C" stroke-width="1.4" stroke-linecap="round" stroke-linejoin="round"/>
<path fill-rule="evenodd" clip-rule="evenodd" d="M403 391C404.243 391 405.25 392.007 405.25 393.25V400.75C405.25 401.993 404.243 403 403 403H391C389.757 403 388.75 401.993 388.75 400.75V393.25C388.75 392.007 389.757 391 391 391H403ZM402.44 392.5H391.56L396.535 396.428C396.808 396.643 397.192 396.643 397.465 396.428L402.44 392.5ZM390.25 393.377V400.75C390.25 401.164 390.586 401.5 391 401.5H403C403.414 401.5 403.75 401.164 403.75 400.75V393.377L398.394 397.605C397.577 398.25 396.423 398.25 395.606 397.605L390.25 393.377Z" fill="#11133C"/>
<path d="M326 502.5C325.788 502.5 325.609 502.428 325.465 502.284C325.321 502.14 325.25 501.962 325.25 501.75C325.25 501.538 325.322 501.359 325.466 501.215C325.61 501.071 325.788 500.999 326 501C326.213 501 326.391 501.072 326.535 501.216C326.679 501.36 326.751 501.538 326.75 501.75C326.75 501.962 326.678 502.141 326.534 502.285C326.39 502.429 326.212 502.5 326 502.5ZM329 502.5C328.788 502.5 328.609 502.428 328.465 502.284C328.321 502.14 328.25 501.962 328.25 501.75C328.25 501.538 328.322 501.359 328.466 501.215C328.61 501.071 328.788 500.999 329 501C329.213 501 329.391 501.072 329.535 501.216C329.679 501.36 329.751 501.538 329.75 501.75C329.75 501.962 329.678 502.141 329.534 502.285C329.39 502.429 329.212 502.5 329 502.5ZM332 502.5C331.788 502.5 331.609 502.428 331.465 502.284C331.321 502.14 331.25 501.962 331.25 501.75C331.25 501.538 331.322 501.359 331.466 501.215C331.61 501.071 331.788 500.999 332 501C332.213 501 332.391 501.072 332.535 501.216C332.679 501.36 332.751 501.538 332.75 501.75C332.75 501.962 332.678 502.141 332.534 502.285C332.39 502.429 332.212 502.5 332 502.5ZM323.75 508.5C323.338 508.5 322.984 508.353 322.69 508.059C322.396 507.765 322.25 507.412 322.25 507V496.5C322.25 496.088 322.397 495.734 322.691 495.44C322.985 495.146 323.338 495 323.75 495H324.5V493.5H326V495H332V493.5H333.5V495H334.25C334.663 495 335.016 495.147 335.31 495.441C335.604 495.735 335.751 496.088 335.75 496.5V507C335.75 507.413 335.603 507.766 335.309 508.06C335.015 508.354 334.662 508.5 334.25 508.5H323.75ZM323.75 507H334.25V499.5H323.75V507ZM323.75 498H334.25V496.5H323.75V498Z" fill="#11133C"/>
<path d="M356.25 496.125C356.25 502.545 361.455 507.75 367.875 507.75C368.165 507.75 368.452 507.739 368.736 507.719C369.063 507.695 369.226 507.683 369.374 507.597C369.497 507.526 369.614 507.401 369.676 507.273C369.75 507.119 369.75 506.939 369.75 506.578V504.466C369.75 504.163 369.75 504.011 369.7 503.882C369.656 503.767 369.585 503.665 369.492 503.584C369.387 503.493 369.245 503.441 368.96 503.338L366.555 502.463C366.224 502.343 366.058 502.283 365.901 502.293C365.763 502.302 365.629 502.349 365.516 502.429C365.388 502.52 365.297 502.671 365.116 502.974L364.5 504C362.513 503.1 360.901 501.487 360 499.5L361.026 498.884C361.329 498.703 361.48 498.612 361.571 498.484C361.651 498.371 361.698 498.237 361.707 498.099C361.717 497.942 361.657 497.776 361.537 497.445L360.662 495.04C360.559 494.755 360.507 494.613 360.416 494.508C360.335 494.415 360.233 494.344 360.119 494.3C359.989 494.25 359.837 494.25 359.534 494.25H357.422C357.061 494.25 356.881 494.25 356.727 494.324C356.599 494.386 356.474 494.503 356.403 494.626C356.317 494.774 356.305 494.937 356.281 495.264C356.261 495.548 356.25 495.835 356.25 496.125Z" stroke="#11133C" stroke-width="1.4" stroke-linecap="round" stroke-linejoin="round"/>
<path fill-rule="evenodd" clip-rule="evenodd" d="M403 495C404.243 495 405.25 496.007 405.25 497.25V504.75C405.25 505.993 404.243 507 403 507H391C389.757 507 388.75 505.993 388.75 504.75V497.25C388.75 496.007 389.757 495 391 495H403ZM402.44 496.5H391.56L396.535 500.428C396.808 500.643 397.192 500.643 397.465 500.428L402.44 496.5ZM390.25 497.377V504.75C390.25 505.164 390.586 505.5 391 505.5H403C403.414 505.5 403.75 505.164 403.75 504.75V497.377L398.394 501.605C397.577 502.25 396.423 502.25 395.606 501.605L390.25 497.377Z" fill="#11133C"/>
<path d="M326 294.5C325.788 294.5 325.609 294.428 325.465 294.284C325.321 294.14 325.25 293.962 325.25 293.75C325.25 293.538 325.322 293.359 325.466 293.215C325.61 293.071 325.788 292.999 326 293C326.213 293 326.391 293.072 326.535 293.216C326.679 293.36 326.751 293.538 326.75 293.75C326.75 293.962 326.678 294.141 326.534 294.285C326.39 294.429 326.212 294.5 326 294.5ZM329 294.5C328.788 294.5 328.609 294.428 328.465 294.284C328.321 294.14 328.25 293.962 328.25 293.75C328.25 293.538 328.322 293.359 328.466 293.215C328.61 293.071 328.788 292.999 329 293C329.213 293 329.391 293.072 329.535 293.216C329.679 293.36 329.751 293.538 329.75 293.75C329.75 293.962 329.678 294.141 329.534 294.285C329.39 294.429 329.212 294.5 329 294.5ZM332 294.5C331.788 294.5 331.609 294.428 331.465 294.284C331.321 294.14 331.25 293.962 331.25 293.75C331.25 293.538 331.322 293.359 331.466 293.215C331.61 293.071 331.788 292.999 332 293C332.213 293 332.391 293.072 332.535 293.216C332.679 293.36 332.751 293.538 332.75 293.75C332.75 293.962 332.678 294.141 332.534 294.285C332.39 294.429 332.212 294.5 332 294.5ZM323.75 300.5C323.338 300.5 322.984 300.353 322.69 300.059C322.396 299.765 322.25 299.412 322.25 299V288.5C322.25 288.088 322.397 287.734 322.691 287.44C322.985 287.146 323.338 287 323.75 287H324.5V285.5H326V287H332V285.5H333.5V287H334.25C334.663 287 335.016 287.147 335.31 287.441C335.604 287.735 335.751 288.088 335.75 288.5V299C335.75 299.413 335.603 299.766 335.309 300.06C335.015 300.354 334.662 300.5 334.25 300.5H323.75ZM323.75 299H334.25V291.5H323.75V299ZM323.75 290H334.25V288.5H323.75V290Z" fill="#11133C"/>
<path d="M356.25 288.125C356.25 294.545 361.455 299.75 367.875 299.75C368.165 299.75 368.452 299.739 368.736 299.719C369.063 299.695 369.226 299.683 369.374 299.597C369.497 299.526 369.614 299.401 369.676 299.273C369.75 299.119 369.75 298.939 369.75 298.578V296.466C369.75 296.163 369.75 296.011 369.7 295.882C369.656 295.767 369.585 295.665 369.492 295.584C369.387 295.493 369.245 295.441 368.96 295.338L366.555 294.463C366.224 294.343 366.058 294.283 365.901 294.293C365.763 294.302 365.629 294.349 365.516 294.429C365.388 294.52 365.297 294.671 365.116 294.974L364.5 296C362.513 295.1 360.901 293.487 360 291.5L361.026 290.884C361.329 290.703 361.48 290.612 361.571 290.484C361.651 290.371 361.698 290.237 361.707 290.099C361.717 289.942 361.657 289.776 361.537 289.445L360.662 287.04C360.559 286.755 360.507 286.613 360.416 286.508C360.335 286.415 360.233 286.344 360.119 286.3C359.989 286.25 359.837 286.25 359.534 286.25H357.422C357.061 286.25 356.881 286.25 356.727 286.324C356.599 286.386 356.474 286.503 356.403 286.626C356.317 286.774 356.305 286.937 356.281 287.264C356.261 287.548 356.25 287.835 356.25 288.125Z" stroke="#11133C" stroke-width="1.4" stroke-linecap="round" stroke-linejoin="round"/>
<path fill-rule="evenodd" clip-rule="evenodd" d="M403 287C404.243 287 405.25 288.007 405.25 289.25V296.75C405.25 297.993 404.243 299 403 299H391C389.757 299 388.75 297.993 388.75 296.75V289.25C388.75 288.007 389.757 287 391 287H403ZM402.44 288.5H391.56L396.535 292.428C396.808 292.643 397.192 292.643 397.465 292.428L402.44 288.5ZM390.25 289.377V296.75C390.25 297.164 390.586 297.5 391 297.5H403C403.414 297.5 403.75 297.164 403.75 296.75V289.377L398.394 293.605C397.577 294.25 396.423 294.25 395.606 293.605L390.25 289.377Z" fill="#11133C"/>
<line x1="59" y1="344.5" x2="406" y2="344.5" stroke="#E4E4E4"/>
<line x1="59" y1="448.5" x2="406" y2="448.5" stroke="#E4E4E4"/>
<line x1="425.638" y1="52.6989" x2="422.831" y2="38.9831" stroke="black" stroke-width="3" stroke-linecap="round"/>
<line x1="433.411" y1="52.521" x2="443.673" y2="39.157" stroke="black" stroke-width="3" stroke-linecap="round"/>
<line x1="437.24" y1="59.5112" x2="452.915" y2="56.3034" stroke="black" stroke-width="3" stroke-linecap="round"/>
<g filter="url(#filter0_d_421_1395)">
<rect x="20" y="153.919" width="412" height="104" rx="8" transform="rotate(-11.6107 20 153.919)" fill="white" shape-rendering="crispEdges"/>
<circle cx="97.0741" cy="191.17" r="28" transform="rotate(-11.6107 97.0741 191.17)" fill="#E6F1FB"/>
<path d="M96.1695 190.17C95.092 190.391 94.0907 190.197 93.1658 189.587C92.2408 188.978 91.6677 188.134 91.4463 187.057C91.2249 185.979 91.4191 184.978 92.0287 184.053C92.6384 183.128 93.482 182.555 94.5595 182.333C95.637 182.112 96.6382 182.306 97.5631 182.916C98.4881 183.525 99.0612 184.369 99.2826 185.447C99.504 186.524 99.3099 187.525 98.7002 188.45C98.0905 189.375 97.247 189.948 96.1695 190.17ZM89.9431 199.616L89.3796 196.873C89.2656 196.318 89.3038 195.778 89.4941 195.254C89.6845 194.73 89.991 194.297 90.4136 193.956C91.3218 193.241 92.2723 192.65 93.2651 192.182C94.2579 191.714 95.2931 191.37 96.3707 191.149C97.4482 190.928 98.5354 190.837 99.6323 190.875C100.729 190.914 101.836 191.082 102.952 191.38C103.475 191.527 103.928 191.804 104.31 192.211C104.692 192.618 104.939 193.099 105.052 193.653L105.616 196.396L89.9431 199.616Z" fill="black"/>
<path d="M151.225 171.746L146.868 172.641L146.575 174.874L144.271 175.347L145.954 163.584L148.509 163.059L154.694 173.206L152.374 173.682L151.225 171.746ZM150.269 170.113L147.745 165.862L147.103 170.763L150.269 170.113ZM165.137 161.88C166.203 161.661 167.127 161.814 167.91 162.339C168.702 162.852 169.218 163.693 169.458 164.863L170.505 169.957L168.31 170.408L167.325 165.612C167.185 164.933 166.907 164.451 166.489 164.167C166.069 163.872 165.561 163.786 164.966 163.908C164.37 164.03 163.932 164.311 163.652 164.75C163.38 165.176 163.314 165.728 163.454 166.407L164.439 171.203L162.245 171.654L161.26 166.858C161.12 166.179 160.841 165.697 160.424 165.413C160.004 165.118 159.496 165.032 158.9 165.154C158.294 165.279 157.851 165.56 157.571 165.999C157.299 166.425 157.233 166.978 157.373 167.657L158.358 172.453L156.164 172.903L154.38 164.221L156.574 163.77L156.79 164.82C156.997 164.396 157.298 164.035 157.694 163.736C158.101 163.435 158.57 163.229 159.103 163.12C159.782 162.98 160.418 163.002 161.011 163.185C161.602 163.358 162.099 163.68 162.501 164.153C162.68 163.594 163.005 163.108 163.475 162.695C163.956 162.281 164.51 162.009 165.137 161.88ZM171.124 165.273C170.944 164.395 170.956 163.581 171.161 162.831C171.377 162.079 171.745 161.459 172.266 160.971C172.796 160.481 173.433 160.159 174.175 160.007C174.822 159.874 175.413 159.888 175.948 160.051C176.493 160.211 176.952 160.46 177.326 160.797L177.072 159.559L179.282 159.105L181.066 167.787L178.856 168.241L178.595 166.972C178.396 167.437 178.074 167.857 177.629 168.232C177.191 168.594 176.649 168.842 176.001 168.975C175.27 169.125 174.562 169.074 173.879 168.823C173.206 168.569 172.622 168.139 172.127 167.533C171.641 166.914 171.306 166.161 171.124 165.273ZM177.964 163.9C177.854 163.367 177.656 162.934 177.37 162.601C177.082 162.257 176.739 162.022 176.343 161.897C175.945 161.761 175.542 161.735 175.135 161.819C174.727 161.902 174.372 162.079 174.068 162.348C173.764 162.618 173.542 162.968 173.402 163.4C173.27 163.819 173.258 164.29 173.365 164.812C173.473 165.334 173.671 165.773 173.962 166.127C174.261 166.468 174.604 166.708 174.992 166.846C175.39 166.982 175.788 167.009 176.185 166.928C176.592 166.844 176.953 166.667 177.268 166.395C177.58 166.113 177.802 165.763 177.934 165.343C178.063 164.914 178.073 164.433 177.964 163.9ZM184.844 165.132L188.715 164.337L189.086 166.139L182.723 167.447L182.359 165.676L185.102 159.787L181.325 160.563L180.954 158.761L187.255 157.466L187.619 159.237L184.844 165.132ZM194.669 165.139C193.833 165.311 193.043 165.283 192.299 165.054C191.554 164.815 190.917 164.396 190.391 163.797C189.876 163.195 189.527 162.45 189.344 161.562C189.162 160.673 189.194 159.85 189.441 159.092C189.698 158.331 190.129 157.698 190.733 157.193C191.335 156.677 192.054 156.333 192.89 156.161C193.726 155.99 194.522 156.022 195.278 156.259C196.033 156.485 196.673 156.898 197.199 157.498C197.735 158.095 198.095 158.838 198.277 159.726C198.46 160.614 198.417 161.44 198.149 162.203C197.892 162.963 197.457 163.603 196.845 164.12C196.241 164.626 195.515 164.965 194.669 165.139ZM194.276 163.227C194.673 163.145 195.025 162.975 195.331 162.716C195.645 162.445 195.867 162.094 195.997 161.665C196.127 161.235 196.134 160.744 196.021 160.19C195.851 159.364 195.502 158.777 194.973 158.429C194.452 158.067 193.878 157.951 193.251 158.08C192.624 158.209 192.143 158.542 191.807 159.079C191.479 159.604 191.4 160.279 191.57 161.104C191.739 161.93 192.074 162.525 192.574 162.891C193.082 163.244 193.649 163.356 194.276 163.227ZM203.781 153.94C204.815 153.728 205.719 153.885 206.491 154.412C207.262 154.929 207.767 155.773 208.008 156.943L209.054 162.036L206.86 162.487L205.875 157.691C205.733 157.002 205.452 156.51 205.032 156.215C204.61 155.909 204.101 155.818 203.506 155.94C202.9 156.065 202.458 156.352 202.18 156.801C201.91 157.237 201.846 157.8 201.988 158.49L202.973 163.286L200.779 163.737L198.995 155.054L201.189 154.603L201.411 155.685C201.627 155.248 201.937 154.88 202.344 154.578C202.758 154.264 203.237 154.052 203.781 153.94ZM218.227 160.299C217.516 160.445 216.853 160.45 216.237 160.316C215.619 160.17 215.098 159.913 214.674 159.542C214.26 159.17 213.982 158.721 213.841 158.194L216.051 157.74C216.162 158.066 216.381 158.31 216.708 158.471C217.045 158.63 217.428 158.666 217.857 158.578C218.275 158.492 218.581 158.342 218.777 158.128C218.983 157.911 219.059 157.672 219.005 157.411C218.947 157.129 218.758 156.95 218.438 156.874C218.126 156.786 217.639 156.723 216.978 156.684C216.298 156.661 215.732 156.608 215.279 156.527C214.837 156.443 214.43 156.26 214.056 155.978C213.692 155.693 213.451 155.258 213.33 154.673C213.232 154.193 213.277 153.726 213.467 153.273C213.668 152.818 214 152.423 214.465 152.088C214.94 151.751 215.528 151.51 216.228 151.366C217.262 151.154 218.142 151.245 218.865 151.641C219.587 152.026 220.069 152.651 220.312 153.516L218.212 153.948C218.11 153.609 217.908 153.368 217.606 153.223C217.312 153.066 216.951 153.031 216.523 153.119C216.126 153.2 215.833 153.337 215.643 153.528C215.464 153.717 215.402 153.943 215.455 154.204C215.515 154.496 215.708 154.691 216.033 154.788C216.355 154.874 216.841 154.932 217.49 154.962C218.149 154.99 218.699 155.046 219.141 155.129C219.583 155.212 219.986 155.402 220.352 155.697C220.726 155.979 220.977 156.407 221.106 156.979C221.209 157.481 221.16 157.959 220.959 158.414C220.769 158.867 220.437 159.262 219.961 159.599C219.495 159.924 218.916 160.157 218.227 160.299ZM230.556 152.898C230.621 153.211 230.658 153.498 230.667 153.757L224.32 155.061C224.501 155.677 224.821 156.123 225.281 156.399C225.741 156.675 226.252 156.755 226.817 156.639C227.632 156.472 228.14 156.002 228.341 155.232L230.707 154.745C230.628 155.633 230.289 156.421 229.69 157.11C229.089 157.789 228.272 158.235 227.237 158.447C226.401 158.619 225.611 158.591 224.868 158.363C224.132 158.122 223.507 157.7 222.991 157.098C222.486 156.494 222.142 155.748 221.959 154.86C221.775 153.962 221.795 153.135 222.022 152.381C222.248 151.627 222.652 150.999 223.235 150.498C223.819 149.997 224.539 149.659 225.395 149.483C226.221 149.313 226.994 149.339 227.715 149.562C228.446 149.782 229.057 150.184 229.547 150.769C230.046 151.342 230.382 152.052 230.556 152.898ZM228.155 152.738C228.029 152.176 227.732 151.768 227.267 151.516C226.799 151.252 226.278 151.18 225.703 151.298C225.16 151.41 224.734 151.671 224.427 152.083C224.128 152.482 223.996 152.983 224.033 153.585L228.155 152.738ZM232.9 145.05L235.283 156.647L233.088 157.098L230.705 145.501L232.9 145.05ZM237.262 144.153L239.645 155.751L237.45 156.202L235.067 144.604L237.262 144.153ZM248.953 149.118C249.018 149.431 249.055 149.718 249.064 149.977L242.717 151.281C242.898 151.898 243.218 152.344 243.678 152.619C244.137 152.895 244.649 152.975 245.214 152.859C246.029 152.692 246.537 152.223 246.738 151.452L249.104 150.965C249.025 151.853 248.686 152.641 248.087 153.33C247.486 154.009 246.669 154.455 245.634 154.668C244.798 154.839 244.008 154.811 243.265 154.583C242.529 154.342 241.903 153.92 241.388 153.319C240.883 152.715 240.539 151.968 240.356 151.08C240.172 150.182 240.192 149.355 240.419 148.601C240.645 147.847 241.049 147.219 241.632 146.718C242.216 146.217 242.935 145.879 243.792 145.703C244.618 145.533 245.391 145.559 246.112 145.782C246.843 146.002 247.454 146.404 247.944 146.99C248.443 147.562 248.779 148.272 248.953 149.118ZM246.552 148.958C246.425 148.396 246.129 147.989 245.664 147.736C245.196 147.473 244.675 147.4 244.1 147.518C243.557 147.63 243.131 147.891 242.824 148.303C242.525 148.702 242.393 149.203 242.43 149.805L246.552 148.958ZM252.172 145.533C252.36 145.015 252.652 144.579 253.047 144.226C253.453 143.87 253.949 143.632 254.534 143.512L255.007 145.816L254.428 145.935C253.738 146.077 253.249 146.346 252.96 146.743C252.682 147.138 252.625 147.737 252.791 148.542L253.68 152.867L251.485 153.318L249.701 144.636L251.896 144.185L252.172 145.533ZM259.107 141.952L258.692 139.93L262.469 139.154L264.816 150.579L262.559 151.043L260.627 141.639L259.107 141.952Z" fill="#11133C"/>
<path d="M151.499 196.432C151.005 196.533 150.545 196.542 150.12 196.458C149.692 196.366 149.335 196.194 149.046 195.943C148.756 195.684 148.559 195.361 148.455 194.974L149.56 194.747C149.657 195.062 149.86 195.294 150.168 195.443C150.485 195.591 150.862 195.619 151.301 195.529C151.708 195.445 152.011 195.289 152.209 195.061C152.407 194.832 152.478 194.581 152.422 194.306C152.364 194.024 152.196 193.842 151.918 193.761C151.638 193.671 151.222 193.614 150.669 193.588C150.166 193.561 149.748 193.516 149.417 193.454C149.092 193.382 148.794 193.243 148.523 193.037C148.258 192.822 148.083 192.507 147.998 192.092C147.93 191.762 147.966 191.441 148.105 191.126C148.245 190.812 148.479 190.539 148.807 190.308C149.134 190.07 149.528 189.903 149.991 189.808C150.704 189.661 151.317 189.723 151.83 189.993C152.343 190.264 152.679 190.709 152.839 191.33L151.77 191.549C151.677 191.217 151.484 190.975 151.192 190.823C150.907 190.669 150.557 190.635 150.141 190.72C149.757 190.799 149.469 190.944 149.275 191.155C149.082 191.367 149.012 191.605 149.067 191.872C149.111 192.083 149.213 192.246 149.376 192.36C149.544 192.464 149.739 192.538 149.96 192.583C150.188 192.617 150.497 192.648 150.886 192.674C151.374 192.705 151.776 192.753 152.092 192.818C152.406 192.876 152.69 193.006 152.943 193.207C153.205 193.406 153.38 193.701 153.468 194.092C153.54 194.444 153.508 194.782 153.37 195.104C153.232 195.426 152.999 195.707 152.673 195.945C152.352 196.175 151.961 196.337 151.499 196.432ZM160.503 190.858C160.544 191.061 160.577 191.279 160.6 191.511L155.452 192.569C155.621 193.196 155.939 193.649 156.405 193.929C156.877 194.2 157.395 194.277 157.959 194.161C158.422 194.066 158.784 193.881 159.046 193.607C159.314 193.323 159.474 192.988 159.526 192.602L160.678 192.365C160.632 193.02 160.391 193.596 159.955 194.094C159.516 194.584 158.913 194.908 158.145 195.066C157.534 195.192 156.957 195.167 156.415 194.993C155.881 194.817 155.425 194.506 155.048 194.061C154.669 193.608 154.411 193.048 154.274 192.382C154.137 191.716 154.15 191.105 154.314 190.549C154.477 189.993 154.77 189.532 155.194 189.167C155.623 188.793 156.151 188.542 156.778 188.413C157.39 188.287 157.958 188.31 158.483 188.479C159.008 188.649 159.444 188.944 159.791 189.362C160.145 189.771 160.382 190.27 160.503 190.858ZM159.352 190.861C159.268 190.454 159.106 190.124 158.866 189.871C158.625 189.61 158.332 189.437 157.988 189.353C157.65 189.259 157.293 189.251 156.917 189.328C156.377 189.439 155.95 189.706 155.637 190.13C155.331 190.552 155.214 191.074 155.285 191.697L159.352 190.861ZM161.909 185.117L163.697 193.815L162.627 194.035L160.84 185.337L161.909 185.117ZM164.802 184.523L166.589 193.221L165.52 193.441L163.732 184.742L164.802 184.523ZM173.577 188.171C173.619 188.375 173.651 188.593 173.675 188.825L168.526 189.883C168.696 190.509 169.014 190.963 169.479 191.243C169.952 191.513 170.47 191.591 171.034 191.475C171.496 191.38 171.858 191.195 172.121 190.921C172.389 190.637 172.549 190.302 172.6 189.916L173.752 189.679C173.707 190.333 173.466 190.91 173.029 191.408C172.591 191.898 171.988 192.222 171.22 192.38C170.609 192.505 170.032 192.481 169.49 192.306C168.955 192.13 168.5 191.82 168.122 191.375C167.743 190.922 167.485 190.362 167.349 189.696C167.212 189.03 167.225 188.419 167.388 187.862C167.552 187.306 167.845 186.846 168.268 186.481C168.698 186.107 169.226 185.856 169.853 185.727C170.464 185.601 171.032 185.623 171.557 185.793C172.082 185.963 172.518 186.257 172.866 186.676C173.219 187.085 173.456 187.583 173.577 188.171ZM172.426 188.175C172.343 187.767 172.181 187.437 171.941 187.184C171.7 186.924 171.407 186.751 171.063 186.666C170.725 186.573 170.368 186.564 169.992 186.641C169.451 186.753 169.024 187.02 168.711 187.444C168.406 187.866 168.289 188.388 168.359 189.011L172.426 188.175ZM175.663 185.734C175.775 185.327 175.983 184.986 176.286 184.711C176.596 184.435 177.002 184.245 177.504 184.142L177.731 185.247L177.449 185.305C176.25 185.552 175.784 186.325 176.051 187.626L176.771 191.129L175.701 191.349L174.378 184.907L175.448 184.687L175.663 185.734ZM182.917 189.976C182.314 190.1 181.737 190.076 181.187 189.903C180.645 189.729 180.181 189.42 179.796 188.976C179.417 188.523 179.159 187.963 179.023 187.297C178.887 186.639 178.909 186.03 179.088 185.471C179.274 184.902 179.586 184.433 180.025 184.066C180.462 183.69 180.986 183.439 181.598 183.314C182.209 183.188 182.789 183.212 183.339 183.384C183.888 183.549 184.355 183.854 184.74 184.297C185.133 184.739 185.398 185.293 185.535 185.959C185.671 186.625 185.643 187.244 185.45 187.814C185.263 188.375 184.947 188.845 184.502 189.222C184.057 189.599 183.529 189.851 182.917 189.976ZM182.724 189.036C183.108 188.957 183.45 188.793 183.75 188.543C184.05 188.294 184.265 187.968 184.395 187.566C184.532 187.162 184.548 186.701 184.441 186.184C184.335 185.667 184.143 185.249 183.865 184.93C183.588 184.612 183.266 184.4 182.902 184.295C182.536 184.183 182.161 184.166 181.777 184.245C181.385 184.325 181.043 184.489 180.751 184.737C180.465 184.976 180.261 185.295 180.139 185.696C180.017 186.097 180.01 186.556 180.116 187.073C180.224 187.598 180.409 188.021 180.671 188.343C180.941 188.663 181.255 188.88 181.613 188.995C181.97 189.101 182.34 189.115 182.724 189.036ZM189.396 181.699C190.18 181.538 190.863 181.647 191.447 182.025C192.03 182.395 192.413 183.027 192.596 183.92L193.377 187.717L192.319 187.934L191.57 184.291C191.438 183.648 191.177 183.191 190.786 182.92C190.394 182.641 189.92 182.559 189.363 182.674C188.799 182.789 188.385 183.058 188.12 183.48C187.864 183.9 187.805 184.448 187.943 185.122L188.675 188.683L187.605 188.903L186.282 182.461L187.351 182.242L187.54 183.159C187.684 182.786 187.917 182.472 188.241 182.218C188.572 181.962 188.957 181.789 189.396 181.699ZM200.289 182.683C200.33 182.887 200.363 183.105 200.386 183.337L195.238 184.394C195.407 185.021 195.725 185.475 196.191 185.754C196.663 186.025 197.181 186.102 197.745 185.986C198.208 185.891 198.57 185.707 198.832 185.432C199.101 185.148 199.26 184.813 199.312 184.427L200.464 184.191C200.418 184.845 200.177 185.421 199.741 185.919C199.302 186.41 198.699 186.734 197.931 186.891C197.32 187.017 196.743 186.993 196.201 186.818C195.667 186.642 195.211 186.331 194.834 185.886C194.455 185.433 194.197 184.874 194.06 184.208C193.923 183.542 193.936 182.93 194.1 182.374C194.263 181.818 194.557 181.357 194.98 180.993C195.409 180.619 195.938 180.367 196.564 180.238C197.176 180.113 197.744 180.135 198.269 180.305C198.794 180.475 199.23 180.769 199.577 181.188C199.931 181.597 200.168 182.095 200.289 182.683ZM199.138 182.687C199.054 182.279 198.892 181.949 198.653 181.696C198.411 181.435 198.118 181.263 197.774 181.178C197.437 181.084 197.08 181.076 196.703 181.153C196.163 181.264 195.736 181.532 195.423 181.955C195.117 182.377 195 182.9 195.071 183.522L199.138 182.687ZM202.768 185.861C202.565 185.903 202.378 185.868 202.208 185.756C202.038 185.643 201.932 185.486 201.89 185.282C201.848 185.078 201.883 184.891 201.995 184.721C202.107 184.551 202.265 184.445 202.469 184.403C202.665 184.363 202.844 184.4 203.006 184.513C203.176 184.626 203.282 184.783 203.324 184.987C203.366 185.191 203.331 185.378 203.219 185.548C203.114 185.716 202.964 185.821 202.768 185.861ZM203.817 182.203C203.68 181.537 203.694 180.93 203.859 180.381C204.023 179.825 204.311 179.361 204.725 178.99C205.147 178.618 205.663 178.369 206.275 178.243C207.066 178.081 207.756 178.139 208.344 178.418C208.94 178.696 209.391 179.159 209.695 179.807L208.543 180.044C208.353 179.674 208.074 179.409 207.706 179.248C207.346 179.085 206.931 179.052 206.461 179.148C205.849 179.274 205.399 179.587 205.11 180.087C204.819 180.58 204.753 181.21 204.91 181.978C205.07 182.754 205.381 183.315 205.844 183.661C206.307 184.007 206.844 184.117 207.456 183.991C207.926 183.895 208.295 183.704 208.563 183.421C208.832 183.137 208.983 182.779 209.017 182.347L210.169 182.111C210.131 182.804 209.895 183.404 209.46 183.91C209.024 184.408 208.417 184.737 207.641 184.896C207.03 185.022 206.457 184.997 205.923 184.821C205.397 184.643 204.949 184.331 204.579 183.884C204.21 183.437 203.956 182.877 203.817 182.203ZM214.852 183.415C214.249 183.539 213.672 183.514 213.122 183.342C212.58 183.167 212.116 182.858 211.731 182.415C211.352 181.962 211.094 181.402 210.957 180.736C210.822 180.078 210.844 179.469 211.023 178.909C211.208 178.34 211.52 177.872 211.959 177.504C212.396 177.128 212.921 176.878 213.532 176.752C214.143 176.627 214.724 176.65 215.274 176.823C215.822 176.988 216.289 177.292 216.674 177.736C217.067 178.178 217.332 178.732 217.469 179.398C217.606 180.064 217.578 180.682 217.385 181.253C217.198 181.814 216.882 182.283 216.437 182.661C215.991 183.038 215.463 183.289 214.852 183.415ZM214.659 182.475C215.043 182.396 215.385 182.231 215.685 181.982C215.985 181.733 216.199 181.407 216.329 181.004C216.467 180.6 216.482 180.14 216.376 179.623C216.27 179.105 216.078 178.687 215.8 178.369C215.522 178.05 215.201 177.839 214.836 177.734C214.47 177.621 214.095 177.604 213.711 177.683C213.319 177.764 212.977 177.928 212.685 178.176C212.399 178.414 212.195 178.734 212.074 179.134C211.952 179.535 211.944 179.994 212.05 180.511C212.158 181.036 212.343 181.46 212.605 181.782C212.875 182.102 213.189 182.319 213.548 182.433C213.904 182.54 214.275 182.553 214.659 182.475ZM225.938 174.191C226.44 174.088 226.908 174.102 227.343 174.233C227.777 174.356 228.15 174.602 228.463 174.971C228.775 175.339 228.993 175.821 229.115 176.417L229.895 180.214L228.837 180.431L228.089 176.787C227.957 176.145 227.695 175.688 227.305 175.417C226.921 175.137 226.458 175.052 225.917 175.163C225.361 175.277 224.955 175.549 224.7 175.977C224.444 176.397 224.384 176.944 224.523 177.618L225.252 181.168L224.194 181.385L223.446 177.741C223.314 177.099 223.052 176.642 222.662 176.371C222.278 176.091 221.815 176.006 221.274 176.117C220.718 176.231 220.312 176.502 220.057 176.931C219.801 177.351 219.741 177.898 219.88 178.572L220.609 182.122L219.54 182.341L218.216 175.9L219.286 175.68L219.477 176.609C219.619 176.228 219.848 175.912 220.163 175.659C220.487 175.405 220.864 175.233 221.295 175.145C221.836 175.034 222.339 175.057 222.804 175.215C223.269 175.372 223.652 175.665 223.952 176.093C224.039 175.602 224.265 175.188 224.628 174.852C224.992 174.516 225.429 174.296 225.938 174.191Z" fill="#696B78"/>
<g clip-path="url(#clip0_421_1395)">
<path d="M316.793 147.556C316.584 147.599 316.395 147.564 316.225 147.452C316.055 147.34 315.949 147.18 315.907 146.973C315.864 146.764 315.899 146.575 316.011 146.405C316.123 146.235 316.283 146.129 316.491 146.087C316.699 146.044 316.888 146.079 317.058 146.191C317.228 146.303 317.334 146.463 317.376 146.671C317.419 146.879 317.384 147.068 317.272 147.238C317.16 147.408 317 147.514 316.793 147.556ZM319.731 146.953C319.523 146.995 319.334 146.961 319.164 146.849C318.994 146.737 318.888 146.577 318.846 146.369C318.803 146.161 318.838 145.972 318.95 145.802C319.062 145.632 319.222 145.525 319.429 145.483C319.638 145.44 319.827 145.475 319.997 145.587C320.167 145.699 320.273 145.859 320.315 146.067C320.358 146.275 320.323 146.464 320.211 146.634C320.099 146.804 319.939 146.91 319.731 146.953ZM322.67 146.349C322.462 146.392 322.273 146.357 322.103 146.245C321.933 146.133 321.826 145.973 321.784 145.765C321.742 145.557 321.776 145.368 321.888 145.198C322 145.028 322.16 144.922 322.368 144.879C322.576 144.837 322.765 144.871 322.935 144.983C323.105 145.096 323.211 145.255 323.254 145.463C323.296 145.671 323.262 145.86 323.15 146.03C323.038 146.201 322.878 146.307 322.67 146.349ZM315.796 153.886C315.392 153.969 315.016 153.896 314.669 153.668C314.322 153.439 314.107 153.123 314.025 152.719L311.912 142.434C311.829 142.03 311.902 141.654 312.131 141.307C312.359 140.96 312.676 140.745 313.079 140.663L313.814 140.512L313.512 139.042L314.981 138.74L315.283 140.21L321.16 139.002L320.859 137.533L322.328 137.231L322.63 138.7L323.364 138.549C323.769 138.466 324.144 138.539 324.491 138.768C324.838 138.997 325.053 139.313 325.136 139.717L327.249 150.002C327.332 150.406 327.259 150.782 327.03 151.129C326.801 151.476 326.485 151.691 326.081 151.773L315.796 153.886ZM315.494 152.417L325.779 150.304L324.27 142.957L313.985 145.07L315.494 152.417ZM313.683 143.601L323.968 141.488L323.666 140.019L313.381 142.132L313.683 143.601Z" fill="#11133C"/>
</g>
<g clip-path="url(#clip1_421_1395)">
<path d="M345.141 135.224C346.433 141.513 352.578 145.564 358.867 144.271C359.151 144.213 359.43 144.145 359.704 144.067C360.019 143.978 360.177 143.934 360.305 143.82C360.411 143.726 360.5 143.58 360.535 143.442C360.577 143.276 360.541 143.099 360.468 142.747L360.043 140.677C359.982 140.38 359.951 140.232 359.876 140.115C359.81 140.011 359.72 139.926 359.613 139.866C359.492 139.797 359.342 139.775 359.042 139.731L356.51 139.358C356.162 139.307 355.987 139.282 355.836 139.323C355.702 139.36 355.581 139.433 355.486 139.534C355.378 139.649 355.32 139.816 355.203 140.148L354.807 141.277C352.679 140.796 350.776 139.54 349.493 137.775L350.375 136.965C350.634 136.727 350.764 136.608 350.827 136.464C350.883 136.337 350.902 136.196 350.883 136.059C350.862 135.903 350.769 135.753 350.585 135.453L349.244 133.273C349.085 133.015 349.006 132.886 348.896 132.802C348.798 132.727 348.684 132.678 348.563 132.657C348.425 132.635 348.277 132.665 347.98 132.726L345.911 133.151C345.558 133.224 345.382 133.26 345.245 133.364C345.133 133.45 345.033 133.59 344.988 133.725C344.935 133.887 344.956 134.049 344.998 134.374C345.035 134.657 345.082 134.94 345.141 135.224Z" stroke="#11133C" stroke-width="1.4" stroke-linecap="round" stroke-linejoin="round"/>
</g>
<g clip-path="url(#clip2_421_1395)">
<path fill-rule="evenodd" clip-rule="evenodd" d="M390.708 124.714C391.925 124.463 393.115 125.247 393.365 126.465L394.874 133.811C395.124 135.028 394.34 136.218 393.123 136.468L381.368 138.883C380.151 139.133 378.962 138.349 378.712 137.132L377.202 129.785C376.952 128.568 377.736 127.379 378.953 127.128L390.708 124.714ZM390.461 126.296L379.804 128.485L385.468 131.331C385.778 131.487 386.155 131.41 386.378 131.144L390.461 126.296ZM378.697 129.607L380.181 136.83C380.264 137.236 380.661 137.497 381.067 137.414L392.821 134.999C393.227 134.915 393.488 134.519 393.405 134.113L391.921 126.891L387.526 132.11C386.855 132.907 385.725 133.139 384.794 132.671L378.697 129.607Z" fill="#11133C"/>
</g>
<rect x="20.5904" y="154.309" width="411" height="103" rx="7.5" transform="rotate(-11.6107 20.5904 154.309)" stroke="url(#paint2_linear_421_1395)" shape-rendering="crispEdges"/>
</g>
<path d="M392.5 72.5833L388 76.2499L384.25 80.8333V84.4999V85.4166L391 83.5833L401.5 81.7499L403 78.9999V73.4999L392.5 72.5833Z" fill="white"/>
<path d="M403 78.0833V73.5C403 72.5275 402.684 71.5949 402.121 70.9073C401.559 70.2196 400.796 69.8333 400 69.8333C399.204 69.8333 398.441 70.2196 397.879 70.9073C397.316 71.5949 397 72.5275 397 73.5V76.0667M397 75.3333V71.6667C397 70.6942 396.684 69.7616 396.121 69.0739C395.559 68.3863 394.796 68 394 68C393.204 68 392.441 68.3863 391.879 69.0739C391.316 69.7616 391 70.6942 391 71.6667V75.3333M391 75.15V73.5C391 72.5275 390.684 71.5949 390.121 70.9073C389.559 70.2196 388.796 69.8333 388 69.8333C387.204 69.8333 386.441 70.2196 385.879 70.9073C385.316 71.5949 385 72.5275 385 73.5V82.6667M385 82.6667C385 81.6942 384.684 80.7616 384.121 80.0739C383.559 79.3863 382.796 79 382 79C381.204 79 380.441 79.3863 379.879 80.0739C379.316 80.7616 379 81.6942 379 82.6667" fill="white"/>
<path d="M403 78.0833V73.5C403 72.5275 402.684 71.5949 402.121 70.9073C401.559 70.2196 400.796 69.8333 400 69.8333C399.204 69.8333 398.441 70.2196 397.879 70.9073C397.316 71.5949 397 72.5275 397 73.5V76.0667M397 75.3333V71.6667C397 70.6942 396.684 69.7616 396.121 69.0739C395.559 68.3863 394.796 68 394 68C393.204 68 392.441 68.3863 391.879 69.0739C391.316 69.7616 391 70.6942 391 71.6667V75.3333M391 75.15V73.5C391 72.5275 390.684 71.5949 390.121 70.9073C389.559 70.2196 388.796 69.8333 388 69.8333C387.204 69.8333 386.441 70.2196 385.879 70.9073C385.316 71.5949 385 72.5275 385 73.5V82.6667C385 81.6942 384.684 80.7616 384.121 80.0739C383.559 79.3863 382.796 79 382 79C381.204 79 380.441 79.3863 379.879 80.0739C379.316 80.7616 379 81.6942 379 82.6667" stroke="black" stroke-width="2.5" stroke-linecap="round" stroke-linejoin="round"/>
<path d="M403 77.1667C403 76.1942 403.316 75.2616 403.879 74.5739C404.441 73.8863 405.204 73.5 406 73.5C406.796 73.5 407.559 73.8863 408.121 74.5739C408.684 75.2616 409 76.1942 409 77.1667V82.6667C409 86.5565 407.736 90.287 405.485 93.0376C403.235 95.7881 400.183 97.3333 397 97.3333H391C387.817 97.3333 384.765 95.7881 382.515 93.0376C380.264 90.287 379 86.5565 379 82.6667C379 81.6942 379.316 80.7616 379.879 80.0739C380.441 79.3863 381.204 79 382 79C382.796 79 383.559 79.3863 384.121 80.0739C384.684 80.7616 385 81.6942 385 82.6667" fill="white"/>
<path d="M403 77.1667C403 76.1942 403.316 75.2616 403.879 74.5739C404.441 73.8863 405.204 73.5 406 73.5C406.796 73.5 407.559 73.8863 408.121 74.5739C408.684 75.2616 409 76.1942 409 77.1667V82.6667C409 86.5565 407.736 90.287 405.485 93.0376C403.235 95.7881 400.183 97.3333 397 97.3333H391C387.817 97.3333 384.765 95.7881 382.515 93.0376C380.264 90.287 379 86.5565 379 82.6667C379 81.6942 379.316 80.7616 379.879 80.0739C380.441 79.3863 381.204 79 382 79C382.796 79 383.559 79.3863 384.121 80.0739C384.684 80.7616 385 81.6942 385 82.6667" stroke="black" stroke-width="2.5" stroke-linecap="round" stroke-linejoin="round"/>
<defs>
<filter id="filter0_d_421_1395" x="-1" y="71" width="456.501" height="216.791" filterUnits="userSpaceOnUse" color-interpolation-filters="sRGB">
<feFlood flood-opacity="0" result="BackgroundImageFix"/>
<feColorMatrix in="SourceAlpha" type="matrix" values="0 0 0 0 0 0 0 0 0 0 0 0 0 0 0 0 0 0 127 0" result="hardAlpha"/>
<feOffset dx="-5" dy="16"/>
<feGaussianBlur stdDeviation="8"/>
<feComposite in2="hardAlpha" operator="out"/>
<feColorMatrix type="matrix" values="0 0 0 0 0 0 0 0 0 0 0 0 0 0 0 0 0 0 0.08 0"/>
<feBlend mode="normal" in2="BackgroundImageFix" result="effect1_dropShadow_421_1395"/>
<feBlend mode="normal" in="SourceGraphic" in2="effect1_dropShadow_421_1395" result="shape"/>
</filter>
<linearGradient id="paint0_linear_421_1395" x1="91" y1="0" x2="546" y2="553" gradientUnits="userSpaceOnUse">
<stop stop-color="#E7F1FB"/>
<stop offset="1" stop-color="#D8EBFB"/>
</linearGradient>
<linearGradient id="paint1_linear_421_1395" x1="91" y1="0" x2="546" y2="553" gradientUnits="userSpaceOnUse">
<stop stop-color="#E7F1FB"/>
<stop offset="1" stop-color="#E6D2FF"/>
</linearGradient>
<linearGradient id="paint2_linear_421_1395" x1="226" y1="257.919" x2="226" y2="153.919" gradientUnits="userSpaceOnUse">
<stop stop-color="#284EBB"/>
<stop offset="1" stop-color="#5582FF"/>
</linearGradient>
<clipPath id="clip0_421_1395">
<rect width="18" height="18" fill="white" transform="translate(308.802 138.479) rotate(-11.61)"/>
</clipPath>
<clipPath id="clip1_421_1395">
<rect width="18" height="18" fill="white" transform="translate(342.106 131.636) rotate(-11.61)"/>
</clipPath>
<clipPath id="clip2_421_1395">
<rect width="18" height="18" fill="white" transform="translate(375.411 124.794) rotate(-11.61)"/>
</clipPath>
</defs>
</svg>
