<svg width="32" height="32" viewBox="0 0 32 32" fill="none" xmlns="http://www.w3.org/2000/svg">
<g id="database-svgrepo-com">
<path id="Vector" fill-rule="evenodd" clip-rule="evenodd" d="M4.33337 8.00008C4.33337 5.94449 5.97376 4.35271 8.01036 3.33441C10.1068 2.28621 12.9329 1.66675 16 1.66675C19.0671 1.66675 21.8934 2.28621 23.9898 3.33441C26.0263 4.35271 27.6667 5.94449 27.6667 8.00008V24.0001C27.6667 26.0557 26.0263 27.6474 23.9898 28.6657C21.8934 29.7139 19.0671 30.3334 16 30.3334C12.9329 30.3334 10.1068 29.7139 8.01036 28.6657C5.97376 27.6474 4.33337 26.0557 4.33337 24.0001V8.00008ZM6.33337 8.00008C6.33337 7.11015 7.0808 6.03527 8.90479 5.12327C10.6689 4.24119 13.1761 3.66675 16 3.66675C18.824 3.66675 21.3311 4.24119 23.0952 5.12327C24.9192 6.03527 25.6667 7.11015 25.6667 8.00008C25.6667 8.89001 24.9192 9.96489 23.0952 10.8769C21.3311 11.759 18.824 12.3334 16 12.3334C13.1761 12.3334 10.6689 11.759 8.90479 10.8769C7.0808 9.96489 6.33337 8.89001 6.33337 8.00008ZM6.33337 24.0001C6.33337 24.8899 7.0808 25.9649 8.90479 26.8769C10.6689 27.759 13.1761 28.3334 16 28.3334C18.824 28.3334 21.3311 27.759 23.0952 26.8769C24.9192 25.9649 25.6667 24.8899 25.6667 24.0001V19.6097C25.1644 20.0103 24.5946 20.3633 23.9898 20.6657C21.8934 21.7139 19.0671 22.3334 16 22.3334C12.9329 22.3334 10.1068 21.7139 8.01036 20.6657C7.40556 20.3633 6.83571 20.0103 6.33337 19.6097V24.0001ZM25.6667 11.6097V16.0001C25.6667 16.8899 24.9192 17.9649 23.0952 18.8769C21.3311 19.759 18.824 20.3334 16 20.3334C13.1761 20.3334 10.6689 19.759 8.90479 18.8769C7.0808 17.9649 6.33337 16.8899 6.33337 16.0001V11.6097C6.83571 12.0104 7.40556 12.3633 8.01036 12.6657C10.1068 13.7139 12.9329 14.3334 16 14.3334C19.0671 14.3334 21.8934 13.7139 23.9898 12.6657C24.5946 12.3633 25.1644 12.0104 25.6667 11.6097Z" fill="white"/>
</g>
</svg>
