<svg width="198" height="51" viewBox="0 0 198 51" fill="none" xmlns="http://www.w3.org/2000/svg">
<g clip-path="url(#clip0_417_473)">
<path d="M78.9901 25.5377C79.7752 24.5515 80.1736 23.4388 80.1736 22.2312C80.1736 21.2019 79.8944 20.256 79.3448 19.4164C78.7923 18.574 77.9519 17.8955 76.8469 17.398C75.7534 16.9064 74.4099 16.6562 72.8542 16.6562H65.7063V34.8245H67.5093C68.7132 34.8245 69.6874 33.9534 69.6874 32.8809V27.8321H71.5339L75.4161 33.8498C75.8058 34.4536 76.5241 34.8245 77.3034 34.8245H80.7756L75.8407 27.4497C77.2191 27.0702 78.2776 26.429 78.9901 25.5377ZM69.6903 19.6838H72.8571C73.9708 19.6838 74.7996 19.911 75.326 20.3566C75.8523 20.8051 76.1082 21.4204 76.1082 22.2341C76.1082 23.0478 75.8465 23.6803 75.3056 24.1519C74.7734 24.6205 73.9476 24.8591 72.8571 24.8591H69.6903V19.6838Z" fill="white"/>
<path d="M91.4422 16.6621L84.1489 34.8563H86.7778C87.7025 34.8563 88.5255 34.3359 88.8337 33.5567L89.7294 31.2824H97.3862L98.2818 33.5567C98.5901 34.3359 99.413 34.8563 100.338 34.8563H102.996L95.7024 16.6621H91.4393H91.4422ZM96.2171 28.2577H90.9042L93.5738 21.5097L96.2171 28.2577Z" fill="white"/>
<path d="M112.799 30.555L107.608 17.5535C107.401 17.0359 106.855 16.6909 106.238 16.6909H102.999L110.673 34.8592H114.924L122.569 16.6909H119.385C118.772 16.6909 118.225 17.0359 118.018 17.5506L112.801 30.555H112.799Z" fill="white"/>
<path d="M127.394 34.8881H136.807C138.011 34.8881 138.985 34.0169 138.985 32.9444V31.8634H131.375V27.1912H135.961C137.165 27.1912 138.139 26.32 138.139 25.2476V24.1665H131.375V19.7215H136.807C138.011 19.7215 138.985 18.8503 138.985 17.7778V16.6968H127.394V34.8909V34.8881Z" fill="white"/>
<path d="M156.689 28.9448L147.613 16.7109H143.81V34.9051H145.613C146.816 34.9051 147.791 34.0339 147.791 32.9615V22.6482L156.866 34.9051H160.67V16.7109H158.867C157.663 16.7109 156.689 17.5821 156.689 18.6546V28.942V28.9448Z" fill="white"/>
<path d="M177.603 28.1397C177.603 29.3616 177.249 30.2846 176.551 30.8855C175.85 31.4893 174.832 31.7969 173.535 31.7969C172.238 31.7969 171.249 31.4921 170.546 30.8855C169.848 30.2846 169.493 29.3616 169.493 28.1397V18.5969C169.493 17.5216 168.519 16.6533 167.315 16.6533H165.512V28.0879C165.512 29.5715 165.873 30.8481 166.582 31.8889C167.295 32.9326 168.275 33.7204 169.493 34.2351C170.694 34.7411 172.043 34.997 173.503 34.997C174.963 34.997 176.318 34.7411 177.528 34.2351C178.755 33.7233 179.75 32.9355 180.479 31.8918C181.209 30.851 181.582 29.5715 181.582 28.0879V16.6533H179.779C178.575 16.6533 177.601 17.5245 177.601 18.5969V28.1397H177.603Z" fill="white"/>
<path d="M198 18.3584V16.6304H186.409V34.8245H196.549C197.351 34.8245 198.003 34.2437 198.003 33.5278V31.7998H190.393V27.1277H195.706C196.508 27.1277 197.16 26.5469 197.16 25.831V24.103H190.396V19.6579H196.552C197.354 19.6579 198.006 19.0772 198.006 18.3612L198 18.3584Z" fill="white"/>
<path d="M43.6688 25.8701C43.6688 21.4182 40.6819 17.7698 35.4916 16.0769L7.01333 5.90625C5.3145 11.2962 8.35498 17.026 13.8064 18.7078L32.6052 24.5039C34.3375 25.038 34.8197 26.327 34.8197 27.062C34.8197 27.6601 35.0585 28.7483 33.0114 29.9203L25.5353 33.8844L31.7345 41.5984C33.8955 43.735 36.8266 44.9357 39.8849 44.9357H45.0618L35.4246 35.4073C40.6104 34.0256 43.671 30.1255 43.671 25.8723L43.6688 25.8701Z" fill="white"/>
<path d="M49.7766 30.9554L37.6013 27.2253L39.4229 21.416L43.0282 22.5218C45.9437 23.4157 48.214 25.6935 49.0734 28.5871L49.7766 30.9554Z" fill="white"/>
<path d="M18.8651 28.2956C13.8803 28.6024 9.81289 24.4022 10.3397 19.4912L32.0383 25.9295C32.7326 26.1216 32.6344 27.1258 31.9133 27.181L18.8651 28.2934V28.2956Z" fill="white"/>
<path d="M16.7935 30.0109L31.2592 28.265C31.3999 28.2496 31.5338 28.3334 31.5762 28.4681C31.6209 28.6027 31.5628 28.7484 31.4378 28.8168L24.4304 32.9795C21.5082 34.5974 17.8181 33.1649 16.7913 30.0131L16.7935 30.0109Z" fill="white"/>
</g>
<defs>
<clipPath id="clip0_417_473">
<rect width="198" height="51" fill="white"/>
</clipPath>
</defs>
</svg>
