<svg width="32" height="32" viewBox="0 0 32 32" fill="none" xmlns="http://www.w3.org/2000/svg">
<g id="hand-money-svgrepo-com">
<path id="Vector" fill-rule="evenodd" clip-rule="evenodd" d="M19.1001 5.00023C18.9611 5.00003 18.8167 5 18.6667 5H13.3334C13.1832 5 13.0389 5.00003 12.8999 5.00023C12.5022 6.95917 10.9592 8.5022 9.00022 8.89995C9.00003 9.03887 9 9.18323 9 9.33333C9 9.48345 9.00003 9.62781 9.00022 9.76673C10.9592 10.1645 12.5022 11.7075 12.8999 13.6664C13.0389 13.6667 13.1832 13.6667 13.3334 13.6667H18.6667C18.8167 13.6667 18.9611 13.6667 19.1001 13.6664C19.4978 11.7075 21.0409 10.1645 22.9998 9.76673C22.9999 9.62781 23.0001 9.48345 23.0001 9.33333C23.0001 9.18323 22.9999 9.03887 22.9998 8.89995C21.0409 8.5022 19.4978 6.95917 19.1001 5.00023ZM19.9061 3.00436C19.5399 2.99997 19.1499 2.99999 18.7361 3H13.264C12.8501 2.99999 12.46 2.99997 12.094 3.00436C12.063 3.00148 12.0317 3 12 3C11.9581 3 11.9169 3.00257 11.8764 3.00757C11.2727 3.01829 10.7381 3.04416 10.274 3.10655C9.43698 3.21909 8.68124 3.46665 8.07395 4.07395C7.46666 4.68124 7.2191 5.43698 7.10655 6.27403C7.04416 6.73809 7.01828 7.27268 7.00756 7.87637C7.00258 7.91689 7 7.95815 7 8C7 8.03169 7.00148 8.06304 7.00436 8.09397C6.99998 8.46004 6.99999 8.85015 7 9.264V9.40267C6.99999 9.81652 6.99998 10.2066 7.00436 10.5727C7.00148 10.6036 7 10.635 7 10.6667C7 10.7085 7.00258 10.7498 7.00756 10.7903C7.01828 11.394 7.04416 11.9286 7.10655 12.3926C7.2191 13.2297 7.46666 13.9855 8.07395 14.5927C8.68124 15.2 9.43698 15.4476 10.274 15.5601C10.7381 15.6225 11.2727 15.6484 11.8764 15.6591C11.9169 15.6641 11.9581 15.6667 12 15.6667C12.0317 15.6667 12.063 15.6652 12.094 15.6623C12.46 15.6667 12.8501 15.6667 13.264 15.6667H18.7361C19.1499 15.6667 19.5399 15.6667 19.9061 15.6623C19.937 15.6652 19.9683 15.6667 20.0001 15.6667C20.0419 15.6667 20.0831 15.6641 20.1237 15.6591C20.7274 15.6484 21.2619 15.6225 21.7259 15.5601C22.563 15.4476 23.3187 15.2 23.9261 14.5927C24.5334 13.9855 24.7809 13.2297 24.8934 12.3926C24.9558 11.9286 24.9817 11.394 24.9925 10.7903C24.9974 10.7498 25.0001 10.7085 25.0001 10.6667C25.0001 10.635 24.9986 10.6036 24.9957 10.5727C25.0001 10.2066 25.0001 9.81652 25.0001 9.40267V9.26401C25.0001 8.85015 25.0001 8.46004 24.9957 8.09397C24.9986 8.06304 25.0001 8.03169 25.0001 8C25.0001 7.95815 24.9974 7.91689 24.9925 7.87639C24.9817 7.27268 24.9558 6.73809 24.8934 6.27403C24.7809 5.43698 24.5334 4.68124 23.9261 4.07395C23.3187 3.46665 22.563 3.21909 21.7259 3.10655C21.2619 3.04416 20.7274 3.01829 20.1237 3.00757C20.0831 3.00257 20.0419 3 20.0001 3C19.9683 3 19.937 3.00148 19.9061 3.00436ZM21.1921 5.05861C21.4959 5.86389 22.1361 6.50413 22.9414 6.80788C22.9327 6.71463 22.9227 6.62565 22.9113 6.54052C22.8286 5.92524 22.6857 5.66192 22.5118 5.48816C22.3381 5.3144 22.0747 5.17144 21.4595 5.08872C21.3743 5.07727 21.2854 5.06731 21.1921 5.05861ZM22.9414 11.8588C22.1361 12.1625 21.4959 12.8028 21.1921 13.608C21.2854 13.5993 21.3743 13.5895 21.4595 13.578C22.0747 13.4952 22.3381 13.3523 22.5118 13.1785C22.6857 13.0048 22.8286 12.7414 22.9113 12.1261C22.9227 12.041 22.9327 11.9521 22.9414 11.8588ZM10.8079 13.608C10.5041 12.8028 9.8639 12.1625 9.05862 11.8588C9.0673 11.9521 9.07727 12.041 9.08872 12.1261C9.17144 12.7414 9.3144 13.0048 9.48816 13.1785C9.66191 13.3523 9.92524 13.4952 10.5405 13.578C10.6257 13.5895 10.7146 13.5993 10.8079 13.608ZM9.05862 6.80788C9.8639 6.50413 10.5041 5.86389 10.8079 5.05861C10.7146 5.06731 10.6257 5.07727 10.5405 5.08872C9.92524 5.17144 9.66191 5.3144 9.48816 5.48816C9.3144 5.66192 9.17144 5.92524 9.08872 6.54052C9.07727 6.62565 9.0673 6.71463 9.05862 6.80788ZM16.0001 9C15.8159 9 15.6667 9.14924 15.6667 9.33333C15.6667 9.51743 15.8159 9.66667 16.0001 9.66667C16.1841 9.66667 16.3334 9.51743 16.3334 9.33333C16.3334 9.14924 16.1841 9 16.0001 9ZM13.6667 9.33333C13.6667 8.04467 14.7114 7 16.0001 7C17.2887 7 18.3334 8.04467 18.3334 9.33333C18.3334 10.622 17.2887 11.6667 16.0001 11.6667C14.7114 11.6667 13.6667 10.622 13.6667 9.33333ZM11.5785 19.2643C14.0663 18.7823 16.7294 18.8904 18.8843 20.1757C19.187 20.3563 19.4707 20.5812 19.7183 20.8592C20.2194 21.4221 20.4783 22.1217 20.4905 22.8232C20.7455 22.6587 21.001 22.476 21.2605 22.28L23.6701 20.4597C24.8762 19.5487 26.629 19.5485 27.8353 20.4593C28.9499 21.3009 29.3942 22.8113 28.5963 24.0903C28.0293 24.9993 27.1753 26.2567 26.3061 27.0616C25.4275 27.8753 24.1771 28.5595 23.2314 29.016C22.0827 29.5704 20.8421 29.8769 19.6358 30.0721C17.1702 30.4713 14.6046 30.4103 12.1667 29.908C10.9208 29.6512 9.62607 29.5179 8.34658 29.5179H5.33334C4.78106 29.5179 4.33334 29.0701 4.33334 28.5179C4.33334 27.9656 4.78106 27.5179 5.33334 27.5179H8.34658C9.76272 27.5179 11.1926 27.6653 12.5702 27.9491C14.773 28.4029 17.0935 28.4576 19.3162 28.0979C20.4214 27.9189 21.4534 27.6533 22.3619 27.2148C23.2731 26.7749 24.2977 26.1957 24.9471 25.5943C25.6038 24.986 26.3387 23.9305 26.8995 23.0317C27.0687 22.7604 27.0453 22.3689 26.6302 22.0555C26.1371 21.6832 25.3685 21.6833 24.8755 22.0556L22.4661 23.8759C21.5041 24.6024 20.3202 25.3799 18.8517 25.6141C18.7034 25.6377 18.5491 25.6593 18.389 25.6784C18.3126 25.6923 18.2331 25.7013 18.151 25.7044C17.4013 25.7789 16.533 25.7963 15.575 25.7057C15.0251 25.6539 14.6215 25.166 14.6734 24.6161C14.7254 24.0663 15.2133 23.6627 15.763 23.7147C16.5997 23.7936 17.3502 23.7761 17.987 23.7108C17.9999 23.7095 18.0127 23.7081 18.0255 23.7068C18.0522 23.6913 18.0927 23.6632 18.1461 23.6167C18.5721 23.2448 18.6101 22.6223 18.2245 22.1891C18.1267 22.0793 18.0065 21.9808 17.8598 21.8933C16.285 20.954 14.1817 20.7971 11.9589 21.2277C9.74891 21.6559 7.55322 22.6423 5.91182 23.8063C5.46131 24.1257 4.83712 24.0195 4.51763 23.5691C4.19815 23.1185 4.30436 22.4944 4.75486 22.1748C6.61935 20.8527 9.07814 19.7487 11.5785 19.2643Z" fill="white"/>
</g>
</svg>
