<svg xmlns="http://www.w3.org/2000/svg" width="179" height="46" viewBox="0 0 179 46" fill="none">
  <g clip-path="url(#clip0_317_77)">
    <path d="M71.4102 23.034C72.12 22.1445 72.4802 21.1409 72.4802 20.0517C72.4802 19.1233 72.2278 18.2701 71.7309 17.5129C71.2314 16.753 70.4716 16.141 69.4726 15.6924C68.4842 15.2489 67.2696 15.0233 65.8631 15.0233H59.4011V31.4104H61.0311C62.1195 31.4104 63.0002 30.6246 63.0002 29.6573V25.1035H64.6695L68.1792 30.5313C68.5315 31.0759 69.1808 31.4104 69.8854 31.4104H73.0243L68.563 24.7586C69.8091 24.4163 70.7661 23.8379 71.4102 23.034ZM63.0028 17.7541H65.8657C66.8726 17.7541 67.6219 17.9589 68.0977 18.3609C68.5735 18.7655 68.8049 19.3204 68.8049 20.0543C68.8049 20.7882 68.5683 21.3588 68.0793 21.7841C67.5982 22.2068 66.8516 22.422 65.8657 22.422H63.0028V17.7541Z" fill="#11133C"/>
    <path d="M82.6674 15.0286L76.074 31.439H78.4505C79.2866 31.439 80.0305 30.9696 80.3092 30.2668L81.1189 28.2155H88.041L88.8507 30.2668C89.1293 30.9696 89.8733 31.439 90.7093 31.439H93.1122L86.5188 15.0286H82.6648H82.6674ZM86.9841 25.4874H82.181L84.5944 19.4009L86.9841 25.4874Z" fill="#11133C"/>
    <path d="M101.974 27.5593L97.2816 15.8324C97.095 15.3656 96.6007 15.0544 96.0434 15.0544H93.1147L100.053 31.4415H103.896L110.808 15.0544H107.929C107.374 15.0544 106.88 15.3656 106.693 15.8298L101.977 27.5593H101.974Z" fill="#11133C"/>
    <path d="M115.169 31.4675H123.679C124.767 31.4675 125.648 30.6817 125.648 29.7144V28.7394H118.768V24.5252H122.914C124.002 24.5252 124.883 23.7395 124.883 22.7722V21.7971H118.768V17.7878H123.679C124.767 17.7878 125.648 17.0021 125.648 16.0348V15.0597H115.169V31.4701V31.4675Z" fill="#11133C"/>
    <path d="M141.653 26.1071L133.448 15.0726H130.01V31.483H131.639C132.728 31.483 133.609 30.6973 133.609 29.73V20.4278L141.814 31.483H145.252V15.0726H143.622C142.534 15.0726 141.653 15.8584 141.653 16.8257V26.1045V26.1071Z" fill="#11133C"/>
    <path d="M160.561 25.381C160.561 26.4831 160.24 27.3156 159.609 27.8576C158.975 28.4022 158.055 28.6797 156.883 28.6797C155.71 28.6797 154.816 28.4048 154.18 27.8576C153.549 27.3156 153.228 26.4831 153.228 25.381V16.7738C153.228 15.8039 152.348 15.0208 151.259 15.0208H149.629V25.3343C149.629 26.6725 149.955 27.8239 150.597 28.7627C151.241 29.704 152.127 30.4146 153.228 30.8788C154.314 31.3352 155.534 31.566 156.854 31.566C158.173 31.566 159.399 31.3352 160.492 30.8788C161.602 30.4172 162.501 29.7066 163.161 28.7653C163.82 27.8265 164.157 26.6725 164.157 25.3343V15.0208H162.527C161.439 15.0208 160.558 15.8065 160.558 16.7738V25.381H160.561Z" fill="#11133C"/>
    <path d="M179 16.5586V15H168.521V31.4104H177.688C178.414 31.4104 179.003 30.8866 179.003 30.2408V28.6823H172.123V24.4681H176.926C177.651 24.4681 178.24 23.9443 178.24 23.2986V21.74H172.125V17.7307H177.691C178.416 17.7307 179.005 17.2069 179.005 16.5612L179 16.5586Z" fill="#11133C"/>
    <path d="M39.4783 23.3338C39.4783 19.3184 36.778 16.0276 32.0858 14.5007L6.34032 5.32715C4.8045 10.1886 7.55322 15.3567 12.4815 16.8737L29.4764 22.1015C31.0424 22.5832 31.4784 23.7459 31.4784 24.4088C31.4784 24.9483 31.6943 25.9298 29.8437 26.9869L23.0849 30.5623L28.6893 37.5201C30.6429 39.4472 33.2927 40.5301 36.0575 40.5301H40.7376L32.0253 31.9359C36.7134 30.6897 39.4803 27.172 39.4803 23.3358L39.4783 23.3338Z" fill="#11133C"/>
    <path d="M45.0001 27.9206L33.9932 24.5561L35.64 19.3164L38.8993 20.3138C41.535 21.1201 43.5874 23.1745 44.3644 25.7845L45.0001 27.9206Z" fill="#11133C"/>
    <path d="M17.0548 25.5217C12.5483 25.7984 8.87124 22.0099 9.34752 17.5804L28.9639 23.3876C29.5916 23.5608 29.5028 24.4666 28.8509 24.5163L17.0548 25.5197V25.5217Z" fill="#11133C"/>
    <path d="M15.1819 27.0685L28.2595 25.4938C28.3867 25.4799 28.5078 25.5555 28.5461 25.677C28.5865 25.7984 28.534 25.9298 28.421 25.9915L22.086 29.7461C19.4443 31.2054 16.1083 29.9134 15.1799 27.0705L15.1819 27.0685Z" fill="#11133C"/>
  </g>
  <defs>
    <clipPath id="clip0_317_77">
      <rect width="179" height="46" fill="white"/>
    </clipPath>
  </defs>
</svg>