<svg width="946" height="871" viewBox="0 0 946 871" fill="none" xmlns="http://www.w3.org/2000/svg">
<path d="M631.215 658.314L841.1 869.989H729.098C662.4 869.989 598.429 843.283 551.253 795.715L416.087 624.16L579.046 536.055L579.053 536.051L579.06 536.047C601.497 522.958 611.48 510.279 615.827 499.138C619.404 489.972 619.142 481.875 618.94 475.619C618.897 474.286 618.857 473.037 618.857 471.879C618.857 455.306 608.214 426.328 570.096 414.353L159.001 285.068L158.851 285.545L159.001 285.068C40.2162 247.73 -26.1217 120.454 10.6376 0.649845L632.834 227.357L632.841 227.359L632.848 227.362C716.278 255.08 773.529 306.387 797.978 371.008L798.064 371.235L798.295 371.308C861.604 391.315 910.849 441.85 929.552 506.07L944.692 558.019L800.121 512.828L800.005 513.2L799.502 513.113C775.642 579.297 716.754 634.288 631.439 657.479L630.611 657.704L631.215 658.314Z" stroke="#EBECF2"/>
<path d="M269.652 499.042L268.75 499.12C160.764 505.321 72.8088 412.807 83.8746 304.503L557.426 447.467L557.435 447.469C572.085 451.601 569.969 473.141 554.8 474.311L554.796 474.312L269.652 499.042Z" stroke="#EBECF2"/>
<path d="M390.681 603.587C327.237 639.431 247.169 607.881 224.56 538.285L540.307 499.426C540.308 499.426 540.309 499.426 540.31 499.426C543.169 499.109 545.84 500.846 546.724 503.607C547.609 506.367 546.429 509.361 543.923 510.783L543.911 510.791L390.688 603.583C390.686 603.585 390.684 603.586 390.681 603.587Z" stroke="#EBECF2"/>
</svg>
